<?xml version="1.0" standalone="no"?>
<!DOCTYPE svg PUBLIC "-//W3C//DTD SVG 1.1//EN" "http://www.w3.org/Graphics/SVG/1.1/DTD/svg11.dtd" >
<svg>
<metadata>
Created by FontForge 20120731 at Sun May 27 23:19:59 2018
 By www
Copyright (c) 2007 by . All rights reserved.
</metadata>
<defs>
<font id="KohinoorW00-Light" horiz-adv-x="564" >
  <font-face 
    font-family="KohinoorW00-Light"
    font-weight="300"
    font-stretch="normal"
    units-per-em="1000"
    panose-1="1 0 0 0 0 0 0 0 0 0"
    ascent="800"
    descent="-200"
    x-height="539"
    cap-height="701"
    bbox="-179 -321 1132 987"
    underline-thickness="50"
    underline-position="-75"
    unicode-range="U+0020-FB04"
  />
<missing-glyph horiz-adv-x="510" 
d="M0 0v701h502v-701h-502zM51 652v-603h400v603h-400zM251 302h-4l-100 -209h-60l134 260l-134 255h60l105 -206h4l100 206h60l-135 -261l135 -254h-60z" />
    <glyph glyph-name="uni20A8" unicode="Rs&#x2e;" horiz-adv-x="520" 
d="M485 544v-56h-136q0 -41 -12 -80t-39 -67t-66.5 -44t-90.5 -17h-2v-4q24 -15 51 -40.5t62 -78.5l105 -157h-72l-85 130q-26 40 -49 66.5t-40 40t-29 20.5t-25.5 13.5t-17.5 8.5v56q36 -9 75 -9q57 0 97 20.5t61.5 56.5t20.5 88q-56 -3 -189 -3h-66v56h65q125 0 181 -3
q-14 44 -53 67.5t-97 23.5h-96v56h447v-56h-200v-4q17 -12 33 -33t24 -51h143z" />
    <glyph glyph-name="uniFB00" unicode="ff" horiz-adv-x="685" 
d="M347 752l-14 -51q-29 10 -76 10q-76 0 -76 -77v-95h146v-50h-146v-489h-58v489h-92v50h92v93q0 62 36 97t107 35q47 0 81 -12zM682 752l-14 -51q-29 10 -76 10q-76 0 -76 -77v-95h146v-50h-146v-489h-58v489h-92v50h92v93q0 62 36 97t107 35q47 0 81 -12z" />
    <glyph glyph-name="uniFB01" unicode="fi" horiz-adv-x="603" 
d="M347 752l-14 -51q-29 10 -76 10q-76 0 -76 -77v-95h146v-50h-146v-489h-58v489h-92v50h92v93q0 62 36 97t107 35q47 0 81 -12zM458 0v539h58v-539h-58zM434 700q0 21 14 35t34 14q21 0 35 -14t14 -35q0 -20 -14 -34t-35 -14q-20 0 -34 14t-14 34z" />
    <glyph glyph-name="uniFB02" unicode="fl" horiz-adv-x="645" 
d="M347 752l-14 -51q-29 10 -76 10q-76 0 -76 -77v-95h146v-50h-146v-489h-58v489h-92v50h92v93q0 62 36 97t107 35q47 0 81 -12zM458 759h58v-643q0 -38 13.5 -55t45.5 -17q28 0 52 13v-52q-27 -12 -67 -12q-25 0 -49.5 9.5t-38.5 35.5t-14 62v659z" />
    <glyph glyph-name="uniFB03" unicode="ffi" horiz-adv-x="938" 
d="M347 752l-14 -51q-29 10 -76 10q-76 0 -76 -77v-95h146v-50h-146v-489h-58v489h-92v50h92v93q0 62 36 97t107 35q47 0 81 -12zM682 752l-14 -51q-29 10 -76 10q-76 0 -76 -77v-95h146v-50h-146v-489h-58v489h-92v50h92v93q0 62 36 97t107 35q47 0 81 -12zM793 0v539h58
v-539h-58zM769 700q0 21 14 35t34 14q21 0 35 -14t14 -35q0 -20 -14 -34t-35 -14q-20 0 -34 14t-14 34z" />
    <glyph glyph-name="uniFB04" unicode="ffl" horiz-adv-x="980" 
d="M347 752l-14 -51q-29 10 -76 10q-76 0 -76 -77v-95h146v-50h-146v-489h-58v489h-92v50h92v93q0 62 36 97t107 35q47 0 81 -12zM682 752l-14 -51q-29 10 -76 10q-76 0 -76 -77v-95h146v-50h-146v-489h-58v489h-92v50h92v93q0 62 36 97t107 35q47 0 81 -12zM793 759h58
v-643q0 -38 13.5 -55t45.5 -17q28 0 52 13v-52q-27 -12 -67 -12q-25 0 -49.5 9.5t-38.5 35.5t-14 62v659z" />
    <glyph glyph-name=".notdef" horiz-adv-x="510" 
d="M0 0v701h502v-701h-502zM51 652v-603h400v603h-400zM251 302h-4l-100 -209h-60l134 260l-134 255h60l105 -206h4l100 206h60l-135 -261l135 -254h-60z" />
    <glyph glyph-name="glyph1" horiz-adv-x="0" 
 />
    <glyph glyph-name="glyph2" horiz-adv-x="0" 
 />
    <glyph glyph-name="space" unicode=" " horiz-adv-x="275" 
 />
    <glyph glyph-name="exclam" unicode="!" horiz-adv-x="274" 
d="M157 237h-45q-1 30 -7.5 206t-10.5 258h80zM85 53q0 22 15 37.5t36 15.5q22 0 37.5 -15.5t15.5 -37.5q0 -21 -15.5 -36t-37.5 -15q-21 0 -36 15t-15 36z" />
    <glyph glyph-name="quotedbl" unicode="&#x22;" horiz-adv-x="302" 
d="M103 505h-43l-15 211h73zM242 505h-43l-15 211h73z" />
    <glyph glyph-name="numbersign" unicode="#" horiz-adv-x="662" 
d="M42 257h118l33 186h-112v52h121l35 193h55l-35 -193h214l35 193h55l-35 -193h94v-52h-103l-33 -186h97v-52h-106l-36 -205h-55l36 205h-214l-36 -205h-55l36 205h-109v52zM248 443l-33 -186h214l33 186h-214z" />
    <glyph glyph-name="dollar" unicode="$" horiz-adv-x="521" 
d="M285 -141h-59l1 143q-118 5 -195 67l39 52q29 -26 76 -44t101 -18q42 0 80 11.5t59 40.5t21 68q0 36 -21 63t-50.5 43.5t-58.5 29.5l-61 27q-77 34 -110.5 75t-33.5 101q0 43 22 81t62.5 60t84.5 28l-1 141h59l-1 -139q39 -2 82.5 -13.5t74.5 -35.5l-42 -50
q-21 20 -60 32t-77 12q-64 0 -103.5 -29.5t-39.5 -83.5q0 -35 23.5 -67.5t99.5 -67.5l58 -27q54 -25 86 -48t50.5 -54t18.5 -74q0 -48 -24 -86.5t-64.5 -62.5t-97.5 -30z" />
    <glyph glyph-name="percent" unicode="%" horiz-adv-x="814" 
d="M764 183q0 -94 -41 -143.5t-106 -49.5q-66 0 -105 48t-39 143q0 46 14 91t50 72t84 27q64 0 103.5 -47.5t39.5 -140.5zM620 39q44 0 66 33.5t22 107.5q0 73 -24 107.5t-68 34.5q-87 0 -87 -140q0 -73 24 -108t67 -35zM197 366q44 0 66 33.5t22 107.5q0 73 -24 107.5
t-68 34.5q-87 0 -87 -140q0 -73 24 -108t67 -35zM673 645l-473 -626l-43 32l473 627zM341 510q0 -94 -41 -143.5t-106 -49.5q-66 0 -105 48t-39 143q0 46 14 91t50 72t84 27q64 0 103.5 -47.5t39.5 -140.5z" />
    <glyph glyph-name="ampersand" unicode="&#x26;" horiz-adv-x="667" 
d="M45 177q0 73 45.5 120.5t125.5 71.5q-40 44 -56 82.5t-16 77.5q0 67 48 113t122 46q36 0 74 -15.5t63.5 -54.5t25.5 -88q0 -68 -43.5 -115t-123.5 -69q60 -68 193 -189q28 43 42 96.5t14 103.5h55q-1 -41 -10.5 -87.5t-26.5 -85t-34 -63.5q61 -54 134 -112v-9h-76
q-53 42 -94 78q-29 -30 -69 -52t-83 -30t-79 -8q-72 0 -122.5 25t-79.5 68t-29 96zM276 38q60 0 109.5 20t83.5 55q-146 136 -216 215q-75 -19 -113.5 -55t-38.5 -92q0 -34 19 -68.5t60.5 -54.5t95.5 -20zM201 529q0 -72 71 -143q77 19 113 53t36 91q0 44 -29.5 75t-77.5 31
q-23 0 -50 -9.5t-45 -35.5t-18 -62z" />
    <glyph glyph-name="quotesingle" unicode="'" horiz-adv-x="163" 
d="M103 505h-43l-15 211h73z" />
    <glyph glyph-name="parenleft" unicode="(" horiz-adv-x="304" 
d="M83 298q0 72 16 151t47.5 149t68.5 123t66 77h69v-6q-53 -49 -103 -125.5t-78 -174t-28 -194.5t25.5 -186t72 -168t111.5 -139v-6h-68q-21 18 -53.5 60.5t-66 107t-56.5 151t-23 180.5z" />
    <glyph glyph-name="parenright" unicode=")" horiz-adv-x="304" 
d="M221 298q0 -71 -16 -149.5t-48 -148.5t-69 -123.5t-66 -77.5h-68v6q53 49 103 125.5t78 173.5t28 194t-25.5 186.5t-72 168.5t-111.5 139v6h69q21 -18 53.5 -60t65.5 -106.5t56 -151t23 -182.5z" />
    <glyph glyph-name="asterisk" unicode="*" horiz-adv-x="397" 
d="M226 644l-4 -87l82 31l53 18l18 -53l-55 -19l-83 -23l55 -68l33 -45l-45 -33l-35 46l-47 71l-48 -72l-33 -46l-45 33l33 47l53 67l-83 23l-54 18l17 53l55 -17l80 -30l-3 86v57h56v-57z" />
    <glyph glyph-name="plus" unicode="+" horiz-adv-x="520" 
d="M30 309v56h200v202h58v-202h201v-56h-201v-201h-58v201h-200z" />
    <glyph glyph-name="comma" unicode="," horiz-adv-x="227" 
d="M67 -130l-20 34q29 12 47.5 31.5t18.5 41.5q0 16 -9.5 32.5t-44.5 35.5v5q0 23 15.5 38.5t38.5 15.5q19 0 35 -11.5t22.5 -31t6.5 -38.5q0 -41 -21 -76t-46.5 -53t-42.5 -24z" />
    <glyph glyph-name="hyphen" unicode="-" horiz-adv-x="327" 
d="M302 264h-277v56h277v-56z" />
    <glyph glyph-name="period" unicode="." horiz-adv-x="204" 
d="M50 53q0 22 15 37.5t36 15.5q22 0 37.5 -15.5t15.5 -37.5q0 -21 -15.5 -36t-37.5 -15q-21 0 -36 15t-15 36z" />
    <glyph glyph-name="slash" unicode="/" horiz-adv-x="325" 
d="M0 -128l268 858h57l-269 -858h-56z" />
    <glyph glyph-name="zero" unicode="0" horiz-adv-x="568" 
d="M282 -10q-112 0 -164.5 85.5t-52.5 264.5q0 180 54.5 269t166.5 89t164.5 -85.5t52.5 -264.5q0 -180 -54.5 -269t-166.5 -89zM127 348q0 -151 37.5 -226t121.5 -75t119.5 71t35.5 222t-37.5 226t-121.5 75t-119.5 -71t-35.5 -222z" />
    <glyph glyph-name="one" unicode="1" horiz-adv-x="417" 
d="M213 688h67v-688h-59v441l3 182h-4l-74 -52l-91 -64l-36 50z" />
    <glyph glyph-name="two" unicode="2" horiz-adv-x="489" 
d="M104 61v-4h328v-57h-391l-9 56l244 278q41 47 59.5 89.5t18.5 93.5q0 25 -11.5 53.5t-42 47.5t-71.5 19q-28 0 -53.5 -10.5t-43 -35t-24.5 -55.5l-61 17q11 42 42 77.5t69.5 49t74.5 13.5q84 0 133.5 -48t49.5 -125q0 -112 -101 -226l-102 -116z" />
    <glyph glyph-name="three" unicode="3" horiz-adv-x="503" 
d="M314 351v-4q23 -3 46 -14t39.5 -28.5t26 -46t9.5 -66.5q0 -95 -54.5 -147.5t-155.5 -52.5q-31 0 -67.5 9.5t-68.5 32.5t-50 51l50 38q21 -33 56.5 -54t85.5 -21q77 0 112 36t35 104q0 37 -12 65t-46 46t-109 18h-44v54h44q76 0 111 36t35 107q0 39 -16.5 68t-44 43.5
t-66.5 14.5q-29 0 -55 -10t-43.5 -32.5t-25.5 -51.5l-59 16q11 41 39.5 72t65.5 46.5t82 15.5q30 0 62 -8t59 -28t45.5 -55t18.5 -87q0 -69 -30.5 -113t-74.5 -54z" />
    <glyph glyph-name="four" unicode="4" horiz-adv-x="513" 
d="M335 170h-295l-16 56l286 462h83v-463h101v-55h-101v-170h-58v170zM337 627h-4q-32 -59 -74 -126l-170 -276h246v256q0 89 2 146z" />
    <glyph glyph-name="five" unicode="5" horiz-adv-x="519" 
d="M256 -8q-48 0 -84.5 14t-63.5 39t-45 57l59 32q42 -86 141 -86q71 0 107 43t36 121q0 146 -140 146q-65 0 -103 -42l-74 25l30 347h318v-57h-266l-22 -255l5 -2q50 39 122 39q91 0 141.5 -49.5t50.5 -147.5q0 -105 -58 -164.5t-154 -59.5z" />
    <glyph glyph-name="six" unicode="6" horiz-adv-x="524" 
d="M151 408l3 -2q20 13 53.5 22.5t77.5 9.5q87 0 137.5 -55.5t50.5 -158.5q0 -108 -56.5 -171t-150.5 -63q-201 0 -201 255q0 95 31 179.5t85.5 153.5t123.5 110h91v-6q-88 -51 -149 -116.5t-96 -157.5zM271 382q-32 0 -70 -9.5t-67 -30.5q-10 -36 -10 -97
q0 -66 16.5 -109.5t48.5 -67.5t80 -24q69 0 106 43t37 126q0 169 -141 169z" />
    <glyph glyph-name="seven" unicode="7" horiz-adv-x="445" 
d="M337 627v4l-111 -2h-215v59h382l17 -61q-95 -127 -154 -283t-59 -307v-37h-59v37q0 195 92 401q16 36 33.5 68.5t30.5 54t21.5 34.5t14.5 22t7 10z" />
    <glyph glyph-name="eight" unicode="8" 
d="M281 376q65 0 102 36t37 105q0 59 -37 93.5t-101 34.5q-65 0 -101.5 -33t-36.5 -93q0 -68 36.5 -105.5t100.5 -37.5zM280 -10q-103 0 -159 48t-56 143q0 37 12 72t42 61t66 37v4q-41 9 -69.5 49.5t-28.5 109.5q0 33 10.5 66t35 59t63 42.5t90.5 16.5q85 0 138 -46
t53 -132q0 -69 -28.5 -109t-71.5 -54v-4q23 -5 51.5 -20t49.5 -52t21 -95q0 -93 -58.5 -144.5t-160.5 -51.5zM278 323q-74 0 -112.5 -35.5t-38.5 -103.5q0 -67 40 -104t115 -37q77 0 116 36t39 103q0 70 -40.5 105.5t-118.5 35.5z" />
    <glyph glyph-name="nine" unicode="9" horiz-adv-x="520" 
d="M371 288l-3 2q-49 -33 -133 -33q-30 0 -62.5 9t-60 32t-46.5 64.5t-19 104.5q0 39 9 73.5t25 62t39 47.5t57 34t78 14q65 0 108.5 -27t67.5 -82t24 -143q0 -96 -31 -181t-85 -155t-120 -110h-92v6q90 54 151 122t93 160zM252 313q74 0 135 42q7 40 7 89q0 199 -143 199
q-68 0 -105 -42.5t-37 -122.5q0 -165 143 -165z" />
    <glyph glyph-name="colon" unicode=":" horiz-adv-x="204" 
d="M50 467q0 22 15 37.5t36 15.5q22 0 37.5 -15.5t15.5 -37.5q0 -21 -15.5 -36t-37.5 -15q-21 0 -36 15t-15 36zM50 62q0 22 15 37.5t36 15.5q22 0 37.5 -15.5t15.5 -37.5q0 -21 -15.5 -36t-37.5 -15q-21 0 -36 15t-15 36z" />
    <glyph glyph-name="semicolon" unicode=";" horiz-adv-x="227" 
d="M62 468q0 22 15 37.5t36 15.5q22 0 37.5 -15.5t15.5 -37.5q0 -21 -15.5 -36t-37.5 -15q-21 0 -36 15t-15 36zM67 -131l-17 31q30 13 48.5 33.5t18.5 43.5q0 17 -11 32.5t-47 35.5v5q0 23 15.5 38.5t38.5 15.5q19 0 35 -11.5t22.5 -31t6.5 -38.5q0 -41 -21.5 -76.5
t-46.5 -53.5t-42 -24z" />
    <glyph glyph-name="less" unicode="&#x3c;" horiz-adv-x="520" 
d="M87 347v-4l143 -62l259 -118v-63l-459 214v63l459 214v-63l-259 -119z" />
    <glyph glyph-name="equal" unicode="=" horiz-adv-x="520" 
d="M30 420v56h459v-56h-459zM30 198v56h459v-56h-459z" />
    <glyph glyph-name="greater" unicode="&#x3e;" horiz-adv-x="520" 
d="M432 343v4l-143 62l-259 119v63l459 -214v-63l-459 -214v63l259 118z" />
    <glyph glyph-name="question" unicode="?" horiz-adv-x="389" 
d="M170 656q-35 0 -65.5 -9.5t-58.5 -36.5l-40 49q35 30 75.5 41.5t87.5 11.5q80 0 127 -40t47 -113q0 -49 -17.5 -87t-40.5 -63t-47 -48l-112 -106q-12 5 -20 14.5t-8 22.5q0 12 9.5 28t49 50t57 50.5t32 36t25 43t10.5 51.5q0 49 -29.5 77t-81.5 28zM115 53q0 22 15 37.5
t36 15.5q22 0 37.5 -15.5t15.5 -37.5q0 -21 -15.5 -36t-37.5 -15q-21 0 -36 15t-15 36z" />
    <glyph glyph-name="at" unicode="@" horiz-adv-x="889" 
d="M592 -20l26 -47q-38 -26 -99 -42t-117 -16q-78 0 -142 23.5t-107.5 67t-66 105t-22.5 135.5q0 41 11 94.5t40.5 109.5t73.5 101t98.5 76t107.5 42.5t94 11.5q74 0 136.5 -21.5t107 -62t68.5 -97.5t24 -124q0 -55 -14.5 -105.5t-41.5 -89t-65.5 -60t-83.5 -21.5
q-34 0 -56 14t-30 37h-4q-46 -54 -120 -54q-43 0 -70.5 16t-40.5 36.5t-19.5 45t-6.5 53.5q0 54 17.5 100.5t48.5 79.5t72 51t86 18q31 0 63 -7.5t52 -18.5l-26 -178q-9 -59 -9 -91q0 -51 50 -51q39 0 69.5 25.5t50.5 75t20 119.5q0 61 -20.5 109.5t-58 81t-90.5 49
t-117 16.5q-70 0 -135.5 -30.5t-115.5 -83t-78.5 -121.5t-28.5 -141q0 -136 74 -209t215 -73q48 0 98 14.5t82 36.5zM419 107q36 0 66 20.5t41 49.5l5 54l23 166q-25 9 -59 9q-45 0 -85 -24.5t-60.5 -69.5t-20.5 -93q0 -54 22.5 -83t67.5 -29z" />
    <glyph glyph-name="A" unicode="A" horiz-adv-x="575" 
d="M237 701h101l231 -701h-64l-71 216h-294l-71 -216h-63zM248 546l-90 -274h258l-89 272l-38 116h-4z" />
    <glyph glyph-name="B" unicode="B" horiz-adv-x="594" 
d="M401 358q27 -3 51.5 -15.5t41.5 -33t26.5 -50t9.5 -65.5q0 -92 -57 -143t-167 -51h-208v701h205q51 0 96.5 -18t70.5 -60t25 -100q0 -64 -26 -107.5t-68 -53.5v-4zM434 518q0 128 -145 128h-132v-266h138q71 0 105 32t34 106zM308 55q83 0 121.5 31t38.5 103
q0 66 -39 101t-124 35h-148v-270h151z" />
    <glyph glyph-name="C" unicode="C" horiz-adv-x="563" 
d="M65 346q0 174 73 269.5t208 95.5q49 0 97 -12.5t80 -38.5l-37 -48q-54 42 -147 42q-100 0 -156 -75.5t-56 -226.5q0 -150 55.5 -227.5t162.5 -77.5q98 0 140 39l34 -43q-25 -23 -72 -38t-112 -15q-51 0 -100 16.5t-86.5 57.5t-60.5 110t-23 172z" />
    <glyph glyph-name="D" unicode="D" horiz-adv-x="637" 
d="M98 0v701h175q154 0 226.5 -84t72.5 -262q0 -180 -74.5 -267.5t-227.5 -87.5h-172zM158 644v-587h115q91 0 141 32.5t73 95t23 162.5q0 80 -15.5 137.5t-46.5 92.5t-76 51t-105 16h-109z" />
    <glyph glyph-name="E" unicode="E" horiz-adv-x="518" 
d="M473 0h-375v701h360v-56h-300v-262h265v-56h-265v-271h315v-56z" />
    <glyph glyph-name="F" unicode="F" horiz-adv-x="481" 
d="M160 0h-62v701h357v-56h-295v-278h261v-56h-261v-311z" />
    <glyph glyph-name="G" unicode="G" horiz-adv-x="630" 
d="M358 711q125 0 185 -55l-39 -48q-51 46 -151 46q-110 0 -168 -77t-58 -224q0 -101 22.5 -167.5t70.5 -103t129 -36.5q41 0 78.5 8t60.5 24v277h60v-302q-73 -63 -211 -63q-133 0 -202.5 90.5t-69.5 268.5q0 91 22.5 160.5t62 114t93 66t115.5 21.5z" />
    <glyph glyph-name="H" unicode="H" horiz-adv-x="678" 
d="M520 701h60v-701h-60v328h-362v-328h-60v701h60v-317h362v317z" />
    <glyph glyph-name="I" unicode="I" horiz-adv-x="276" 
d="M108 0v701h60v-701h-60z" />
    <glyph glyph-name="J" unicode="J" horiz-adv-x="373" 
d="M9 7l21 56q38 -20 95 -20q47 0 68.5 23t21.5 72v563h60v-563q0 -67 -39 -109t-119 -42q-29 0 -60 6t-48 14z" />
    <glyph glyph-name="K" unicode="K" horiz-adv-x="559" 
d="M158 701v-701h-60v701h60zM190 349l257 352h71l-257 -353l280 -348h-78l-273 345v4z" />
    <glyph glyph-name="L" unicode="L" horiz-adv-x="486" 
d="M98 701h60v-645h313v-56h-373v701z" />
    <glyph glyph-name="M" unicode="M" horiz-adv-x="841" 
d="M198 701l219 -532h6l220 532h100v-701h-59v631h-6l-221 -526h-74l-220 526h-6v-631h-59v701h100z" />
    <glyph glyph-name="N" unicode="N" horiz-adv-x="690" 
d="M163 631h-8v-631h-57v701h93l261 -489l76 -142h8v631h56v-701h-92l-260 487z" />
    <glyph glyph-name="O" unicode="O" horiz-adv-x="664" 
d="M127 354q0 -104 22 -171t66.5 -101.5t117.5 -34.5q48 0 85.5 15.5t64 50t40.5 93t14 141.5q0 104 -22 171t-66 101.5t-118 34.5q-48 0 -85.5 -15.5t-64 -50t-40.5 -93t-14 -141.5zM599 354q0 -364 -271 -364q-62 0 -110.5 20t-82.5 63t-52 112t-18 162q0 364 271 364
q62 0 110.5 -20t82.5 -63t52 -112t18 -162z" />
    <glyph glyph-name="P" unicode="P" horiz-adv-x="549" 
d="M289 701q106 0 164 -49.5t58 -149.5q0 -106 -60.5 -162t-172.5 -56h-120v-284h-60v701h191zM273 645h-115v-305h122q88 0 128.5 39t40.5 117q0 79 -44 114t-132 35z" />
    <glyph glyph-name="Q" unicode="Q" horiz-adv-x="665" 
d="M439 6l199 -121l-66 -36l-212 142q-145 -10 -219.5 76t-74.5 280q0 364 271 364q62 0 110.5 -20t82.5 -63t52 -112t18 -162q0 -144 -41.5 -229.5t-119.5 -114.5v-4zM128 354q0 -104 22 -171t66.5 -101.5t117.5 -34.5q48 0 85.5 15.5t64 50t40.5 93t14 141.5
q0 104 -22 171t-66 101.5t-118 34.5q-48 0 -85.5 -15.5t-64 -50t-40.5 -93t-14 -141.5z" />
    <glyph glyph-name="R" unicode="R" horiz-adv-x="590" 
d="M98 701h162q111 0 171 -47.5t60 -147.5q0 -51 -19.5 -91t-56 -67t-85.5 -32v-4q43 -18 83 -86l135 -226h-72l-130 223q-23 39 -52 57.5t-69 18.5h-67v-299h-60v701zM158 645v-291h99q59 0 96.5 17t56.5 48.5t19 79.5q0 78 -44.5 112t-134.5 34h-92z" />
    <glyph glyph-name="S" unicode="S" horiz-adv-x="522" 
d="M249 47q75 0 118 36.5t43 93.5q0 30 -14 54t-41 43.5t-99.5 53t-103.5 55.5t-47 44t-24 47t-8 54q0 38 15.5 71.5t43.5 58.5t67 39t83 14q50 0 95 -13.5t77 -38.5l-37 -49q-59 44 -138 44q-67 0 -106 -34t-39 -89q0 -23 9.5 -45.5t35 -46t114 -64.5t119.5 -68.5t45 -58
t14 -68.5q0 -29 -10 -61t-39.5 -64t-77 -48.5t-99.5 -16.5q-68 0 -122 19.5t-91 50.5l37 48q78 -61 180 -61z" />
    <glyph glyph-name="T" unicode="T" horiz-adv-x="469" 
d="M205 0v645h-191v56h441v-56h-190v-645h-60z" />
    <glyph glyph-name="U" unicode="U" horiz-adv-x="675" 
d="M340 47q180 0 180 182v472h60v-466q0 -117 -64.5 -181t-181.5 -64q-114 0 -176.5 62.5t-62.5 176.5v472h60v-465q0 -95 49.5 -142t135.5 -47z" />
    <glyph glyph-name="V" unicode="V" horiz-adv-x="583" 
d="M241 0l-231 701h65l176 -537l40 -121h4l40 121l176 537h62l-231 -701h-101z" />
    <glyph glyph-name="W" unicode="W" horiz-adv-x="916" 
d="M240 51h4l45 176l120 474h98l123 -480l44 -170h4l44 169l124 481h60l-181 -701h-98l-124 485l-44 170h-4l-43 -171l-123 -484h-98l-181 701h61l123 -474z" />
    <glyph glyph-name="X" unicode="X" horiz-adv-x="577" 
d="M288 314h-5l-195 -314h-68l230 360l-217 341h72l181 -291h5l180 291h68l-215 -338l233 -363h-72z" />
    <glyph glyph-name="Y" unicode="Y" horiz-adv-x="518" 
d="M454 701h66l-231 -441v-260h-60v260l-231 441h70l191 -377h4z" />
    <glyph glyph-name="Z" unicode="Z" horiz-adv-x="505" 
d="M101 61v-4h367v-57h-428l-11 59l366 581v4h-334v57h393l11 -59z" />
    <glyph glyph-name="bracketleft" unicode="[" horiz-adv-x="294" 
d="M153 748v-902h111v-49h-169v1000h169v-49h-111z" />
    <glyph glyph-name="backslash" unicode="\" horiz-adv-x="325" 
d="M57 730l268 -858h-56l-269 858h57z" />
    <glyph glyph-name="bracketright" unicode="]" horiz-adv-x="294" 
d="M141 -154v902h-111v49h169v-1000h-169v49h111z" />
    <glyph glyph-name="asciicircum" unicode="^" horiz-adv-x="520" 
d="M258 665l-61 -142l-89 -203h-62l173 381h82l173 -380h-62l-89 203l-61 141h-4z" />
    <glyph glyph-name="underscore" unicode="_" horiz-adv-x="476" 
d="M476 -111h-476v56h476v-56z" />
    <glyph glyph-name="grave" unicode="`" horiz-adv-x="500" 
d="M324 626l-188 117l61 33l167 -122z" />
    <glyph glyph-name="a" unicode="a" horiz-adv-x="544" 
d="M372 122v133q-53 2 -99.5 -4.5t-81.5 -21t-55 -38.5t-20 -56q0 -30 16 -53.5t41.5 -33t49.5 -9.5q47 0 87.5 24.5t61.5 58.5zM251 546q83 0 129 -40t46 -119v-252q0 -41 14 -66t43 -25h13v-45l-16 -2q-38 0 -63.5 19t-34.5 48h-4q-38 -42 -78.5 -58.5t-87.5 -16.5
q-26 0 -53.5 8t-53 29t-37 50.5t-11.5 53.5q0 32 14.5 64t55 59.5t106.5 40t139 11.5v63q0 35 -9 62t-35 44.5t-80 17.5q-85 0 -131 -67l-43 36q30 41 75.5 63t101.5 22z" />
    <glyph glyph-name="b" unicode="b" horiz-adv-x="548" 
d="M87 17v742h58v-261h4q25 21 63 33t75 12q42 0 78.5 -15t64.5 -46t44 -80.5t16 -113.5q0 -66 -16 -121.5t-49 -94.5t-82.5 -60.5t-114.5 -21.5q-32 0 -72 6t-69 21zM241 44q86 0 137.5 60.5t51.5 172.5q0 73 -20 120t-55.5 70t-84.5 23q-35 0 -70 -16.5t-55 -43.5v-369
q17 -7 43.5 -12t52.5 -5z" />
    <glyph glyph-name="c" unicode="c" horiz-adv-x="463" 
d="M58 261q0 54 11 106t41.5 96.5t76.5 64t94 19.5q43 0 82 -13t63 -37l-39 -47q-45 43 -111 43q-26 0 -53.5 -8.5t-50.5 -31.5t-38.5 -67t-15.5 -116q0 -224 158 -224q71 0 109 40l35 -45q-13 -13 -36 -25.5t-53.5 -18t-59.5 -5.5q-48 0 -87.5 15t-67.5 47.5t-43 84.5
t-15 122z" />
    <glyph glyph-name="d" unicode="d" horiz-adv-x="549" 
d="M404 530v229h58v-759h-42l-15 58h-4q-17 -29 -55.5 -49t-87.5 -20q-95 0 -147.5 64.5t-52.5 193.5q0 138 69.5 214.5t191.5 76.5q43 0 85 -8zM268 42q50 0 84.5 26.5t51.5 71.5v333q-16 4 -42 7.5t-43 3.5q-101 0 -151 -58.5t-50 -170.5q0 -72 18.5 -119t51.5 -70.5
t80 -23.5z" />
    <glyph glyph-name="e" unicode="e" horiz-adv-x="535" 
d="M424 87l27 -48q-27 -19 -70 -32t-92 -13q-56 0 -99 15t-72.5 48t-44.5 87t-15 128q0 53 12.5 104.5t41 89t71.5 59.5t97 22q34 0 68 -10t61 -34t44 -65t17 -100q0 -39 -5 -92h-348q4 -67 22.5 -109.5t56 -65.5t101.5 -23q27 0 64 9.5t63 29.5zM273 493q-71 0 -111 -51.5
t-45 -141.5h293l1 36q0 157 -138 157z" />
    <glyph glyph-name="f" unicode="f" horiz-adv-x="350" 
d="M347 752l-14 -51q-29 10 -76 10q-76 0 -76 -77v-95h146v-50h-146v-489h-58v489h-92v50h92v93q0 62 36 97t107 35q47 0 81 -12z" />
    <glyph glyph-name="g" unicode="g" horiz-adv-x="548" 
d="M461 516v-528q0 -102 -57 -155.5t-158 -53.5q-31 0 -65 6.5t-60 19.5t-41 26l34 50q54 -48 144 -48q76 0 111 38.5t35 116.5v56h-4q-25 -22 -63.5 -34t-75.5 -12q-42 0 -79 14.5t-64.5 45.5t-43.5 80t-16 113q0 66 16 120.5t48.5 92.5t82.5 58.5t115 20.5q32 0 72 -6
t69 -21zM403 472q-17 7 -43.5 12t-52.5 5q-42 0 -77 -14t-60 -42.5t-38.5 -71.5t-13.5 -99q0 -101 40.5 -156t119.5 -55q35 0 70 16.5t55 43.5v361z" />
    <glyph glyph-name="h" unicode="h" 
d="M309 549q77 0 124 -47t47 -127v-375h-58v367q0 54 -30 91t-89 37q-44 0 -79.5 -19t-53.5 -43t-25 -43v-390h-58v759h58v-282h4q25 33 68.5 52.5t91.5 19.5z" />
    <glyph glyph-name="i" unicode="i" horiz-adv-x="287" 
d="M119 0v539h58v-539h-58zM95 700q0 21 14 35t34 14q21 0 35 -14t14 -35q0 -20 -14 -34t-35 -14q-20 0 -34 14t-14 34z" />
    <glyph glyph-name="j" unicode="j" horiz-adv-x="244" 
d="M-4 -222l-21 51q69 21 93.5 71.5t24.5 123.5v515h58v-517q0 -194 -155 -244zM69 700q0 21 14 35t34 14q21 0 35 -14t14 -35q0 -20 -14 -34t-35 -14q-20 0 -34 14t-14 34z" />
    <glyph glyph-name="k" unicode="k" horiz-adv-x="482" 
d="M145 752v-752h-58v752h58zM163 274v4l206 261h77l-210 -259v-4l224 -276h-77z" />
    <glyph glyph-name="l" unicode="l" horiz-adv-x="281" 
d="M94 759h58v-643q0 -38 13.5 -55t45.5 -17q28 0 52 13v-52q-27 -12 -67 -12q-25 0 -49.5 9.5t-38.5 35.5t-14 62v659z" />
    <glyph glyph-name="m" unicode="m" horiz-adv-x="843" 
d="M435 460q11 27 36.5 49t58.5 31t63 9q80 0 123 -46t43 -132v-371h-58v358q0 66 -30 101.5t-86 35.5q-25 0 -53.5 -10.5t-50 -35.5t-29.5 -51v-398h-58v353q0 68 -30 105t-86 37q-26 0 -55 -11.5t-50.5 -38t-27.5 -55.5v-390h-58v539h43l13 -60h4q20 33 57 51.5t82 18.5
q56 0 92.5 -24t52.5 -65h4z" />
    <glyph glyph-name="n" unicode="n" 
d="M480 371v-371h-58v357q0 67 -33 102.5t-94 35.5q-53 0 -93.5 -30.5t-56.5 -74.5v-390h-58v539h43l13 -59h4q18 25 60.5 47t95.5 22q82 0 128.5 -45t48.5 -133z" />
    <glyph glyph-name="o" unicode="o" horiz-adv-x="550" 
d="M118 274q0 -116 38.5 -172t121.5 -56q82 0 118 54t36 168q0 115 -38.5 171t-121.5 56q-82 0 -118 -53.5t-36 -167.5zM272 -8q-214 0 -214 276q0 63 12.5 115t39 89t69 57t99.5 20q214 0 214 -275q0 -80 -17.5 -134.5t-48 -87.5t-71 -46.5t-83.5 -13.5z" />
    <glyph glyph-name="p" unicode="p" horiz-adv-x="549" 
d="M491 291q0 -138 -69.5 -214.5t-191.5 -76.5q-43 0 -85 8v-202h-58v733h44l13 -57h4q22 30 58.5 48.5t84.5 18.5q95 0 147.5 -64.5t52.5 -193.5zM145 65q16 -4 42 -7.5t43 -3.5q101 0 151 58.5t50 170.5q0 72 -18.5 119t-51.5 70.5t-80 23.5q-38 0 -67.5 -16t-45.5 -35.5
t-23 -33.5v-346z" />
    <glyph glyph-name="q" unicode="q" horiz-adv-x="548" 
d="M461 516v-710h-58v229h-4q-25 -21 -63 -33t-75 -12q-42 0 -78.5 15t-64.5 46t-44 80.5t-16 113.5q0 66 16 121.5t49 94.5t82.5 60.5t114.5 21.5q32 0 72 -6t69 -21zM307 489q-86 0 -137.5 -60.5t-51.5 -172.5q0 -73 20 -120t55.5 -70t84.5 -23q35 0 70 16.5t55 43.5v369
q-17 7 -43.5 12t-52.5 5z" />
    <glyph glyph-name="r" unicode="r" horiz-adv-x="345" 
d="M339 541v-62q-11 3 -30 6t-30 3q-44 0 -80.5 -19.5t-53.5 -57.5v-411h-58v539h43l13 -55h4q19 27 55.5 45t79.5 18q33 0 57 -6z" />
    <glyph glyph-name="s" unicode="s" horiz-adv-x="468" 
d="M346 141q0 29 -20 52.5t-92.5 50t-101.5 45t-46 46t-17 67.5q0 28 12 54.5t35 46.5t57 32t76 12t82.5 -14t64.5 -38l-38 -44q-19 20 -50 31t-61 11q-59 0 -89.5 -26t-30.5 -64q0 -23 11 -40t33 -31t81.5 -36t92 -43t46 -50.5t13.5 -61.5q0 -28 -12 -55t-36 -48.5
t-59.5 -34t-78.5 -12.5q-57 0 -105.5 18.5t-77.5 46.5l38 46q27 -27 65 -42t83 -15q28 0 58 9.5t48.5 33.5t18.5 53z" />
    <glyph glyph-name="t" unicode="t" horiz-adv-x="375" 
d="M237 -5q-132 0 -132 140v354h-83v38l83 12l16 143h42v-143h152v-50h-152v-347q0 -48 22.5 -71t61.5 -23q54 0 85 18l17 -49q-42 -22 -112 -22z" />
    <glyph glyph-name="u" unicode="u" 
d="M84 168v371h58v-354q0 -72 32 -107t98 -35q64 0 105.5 37t41.5 111v348h58v-539h-43l-13 58h-4q-9 -14 -33 -31.5t-57 -27.5t-67 -10q-83 0 -128.5 45t-47.5 134z" />
    <glyph glyph-name="v" unicode="v" horiz-adv-x="465" 
d="M77 539l113 -341q20 -59 41 -141h4q17 60 43 141l113 341h62l-186 -539h-69l-186 539h65z" />
    <glyph glyph-name="w" unicode="w" horiz-adv-x="737" 
d="M371 487h-4l-123 -487h-86l-144 539h61l81 -311l44 -175h4l36 149l85 337h89l84 -338l36 -148h4l45 175l81 311h59l-145 -539h-86z" />
    <glyph glyph-name="x" unicode="x" horiz-adv-x="466" 
d="M374 0l-141 232h-4l-138 -232h-69l175 280l-165 259h69l131 -212h4l129 212h68l-165 -260l176 -279h-70z" />
    <glyph glyph-name="y" unicode="y" horiz-adv-x="486" 
d="M23 -200l9 55q22 -8 49 -8q52 0 84 30.5t54 98.5l-193 563h62l95 -288l64 -198h4q15 61 59 198l93 288h60l-192 -580q-31 -93 -79 -130t-115 -37q-28 0 -54 8z" />
    <glyph glyph-name="z" unicode="z" horiz-adv-x="434" 
d="M96 58v-4h289v-54h-340l-10 68l281 413v4h-258v54h305l15 -68z" />
    <glyph glyph-name="braceleft" unicode="{" horiz-adv-x="321" 
d="M67 264v66q47 10 69 36t22 74q0 25 -11 99.5t-11 114.5q0 149 131 149q28 0 51 -9l-12 -46q-22 8 -42 8q-34 0 -52 -26.5t-18 -77.5q0 -33 11 -108.5t11 -103.5q0 -38 -12.5 -69t-34.5 -48t-44 -24v-4q22 -7 44 -24t34.5 -48t12.5 -69q0 -28 -11 -103.5t-11 -108.5
q0 -51 18 -77.5t52 -26.5q20 0 42 8l12 -46q-23 -9 -51 -9q-131 0 -131 149q0 40 11 114.5t11 99.5q0 48 -22 74t-69 36z" />
    <glyph glyph-name="bar" unicode="|" horiz-adv-x="270" 
d="M160 -239h-50v1071h50v-1071z" />
    <glyph glyph-name="braceright" unicode="}" horiz-adv-x="321" 
d="M254 330v-66q-47 -10 -69 -36t-22 -74q0 -25 11 -99.5t11 -114.5q0 -149 -131 -149q-28 0 -51 9l12 46q22 -8 42 -8q34 0 52 26.5t18 77.5q0 33 -11 108.5t-11 103.5q0 38 12.5 69t34.5 48t44 24v4q-22 7 -44 24t-34.5 48t-12.5 69q0 28 11 103.5t11 108.5q0 51 -18 77.5
t-52 26.5q-20 0 -42 -8l-12 46q23 9 51 9q131 0 131 -149q0 -40 -11 -114.5t-11 -99.5q0 -48 22 -74t69 -36z" />
    <glyph glyph-name="asciitilde" unicode="~" horiz-adv-x="520" 
d="M25 273q-2 8 -2 27q0 48 29 75.5t75 27.5q50 0 128 -34t100.5 -38.5t35.5 -4.5q52 0 52 53l-3 26l54 -5q2 -8 2 -27q0 -48 -29 -75.5t-75 -27.5q-50 0 -128 34t-100.5 38.5t-35.5 4.5q-52 0 -52 -53l3 -26z" />
    <glyph glyph-name="exclamdown" unicode="&#xa1;" horiz-adv-x="274" 
d="M117 284h45l18 -434h-80zM189 498q0 -22 -15 -37.5t-36 -15.5q-22 0 -37.5 15.5t-15.5 37.5q0 21 15.5 36t37.5 15q21 0 36 -15t15 -36z" />
    <glyph glyph-name="cent" unicode="&#xa2;" horiz-adv-x="464" 
d="M173 -126h-55l51 140q-24 12 -42.5 30.5t-32.5 44t-24.5 68t-10.5 104.5q0 54 11 106t41.5 96.5t76.5 64t94 19.5q39 0 77 -11l43 118h55l-51 -140l21 -17l-44 -46l-146 -401q16 -4 40 -4q71 0 109 40l35 -45q-13 -13 -36 -25.5t-53.5 -18t-59.5 -5.5q-26 0 -54 5z
M119 270q0 -151 70 -200l150 412q-25 11 -62 11q-26 0 -53.5 -8.5t-50.5 -31.5t-38.5 -67t-15.5 -116z" />
    <glyph glyph-name="sterling" unicode="&#xa3;" horiz-adv-x="540" 
d="M60 63q36 20 53.5 53t21.5 86l8 111h-78v52h82l10 136q7 93 60 142t138 49q96 0 150 -58l-42 -45q-41 48 -121 48q-36 0 -62.5 -15t-41.5 -43.5t-19 -73.5l-11 -140h224v-52h-228l-8 -112q-9 -107 -68 -143v-4h379v-54h-435z" />
    <glyph glyph-name="currency" unicode="&#xa4;" horiz-adv-x="520" 
d="M46 324q0 75 43 132l-61 62l41 41l61 -62q58 44 134 44q73 0 129 -40l58 58l41 -41l-58 -58q40 -56 40 -129q0 -75 -45 -133l63 -62l-41 -41l-63 62q-56 -42 -132 -42q-75 0 -128 39l-59 -59l-41 41l58 58q-40 54 -40 130zM100 328q0 -70 45.5 -115.5t114.5 -45.5
t114.5 45.5t45.5 114.5q0 70 -45.5 116t-114.5 46t-114.5 -45.5t-45.5 -115.5z" />
    <glyph glyph-name="yen" unicode="&#xa5;" horiz-adv-x="492" 
d="M16 268v56h166l-182 364h70l111 -229l65 -145h4l66 147l110 227h66l-183 -364h167v-56h-200v-268h-60v268h-200z" />
    <glyph glyph-name="brokenbar" unicode="&#xa6;" horiz-adv-x="270" 
d="M160 392h-50v339h50v-339zM160 -141h-50v339h50v-339z" />
    <glyph glyph-name="section" unicode="&#xa7;" horiz-adv-x="577" 
d="M415 -5h5q38 53 38 123q0 27 -8 51t-21 44.5t-30.5 38.5t-34.5 32.5t-80 62t-85 72.5t-33 44t-16 38.5t-5 40.5t6 45h-4q-32 -48 -32 -119q0 -48 28 -91t101.5 -98.5t92.5 -71.5t37.5 -37t29 -40.5t15.5 -39t5 -40.5q0 -26 -9 -55zM107 -133l10 58q39 -13 84 -13t86 13
t64 44.5t23 71.5q0 33 -22 67t-102.5 93.5t-106 87t-40 49.5t-26 53t-11.5 73q0 25 6.5 58.5t24.5 68.5t50.5 68t86 55t116.5 22q48 0 82 -9l-9 -57q-33 10 -70 10q-77 0 -119 -33t-42 -88q0 -22 9.5 -47.5t38 -55.5t97 -82.5t98.5 -84t45.5 -58.5t23 -54.5t7.5 -57.5
q0 -53 -21.5 -101.5t-62.5 -85t-99.5 -57t-128.5 -20.5q-46 0 -92 12z" />
    <glyph glyph-name="dieresis" unicode="&#xa8;" horiz-adv-x="500" 
d="M121 708q0 18 11.5 29.5t29.5 11.5q17 0 29 -11.5t12 -29.5q0 -17 -12 -29t-29 -12q-18 0 -29.5 12t-11.5 29zM297 708q0 18 12 29.5t29 11.5q18 0 29.5 -11.5t11.5 -29.5q0 -17 -11.5 -29t-29.5 -12q-17 0 -29 12t-12 29z" />
    <glyph glyph-name="copyright" unicode="&#xa9;" horiz-adv-x="834" 
d="M118 346q0 -30 7.5 -69t27.5 -78.5t55.5 -75.5t91 -58.5t118.5 -22.5t118.5 22t95.5 62.5t62 96.5t22 119q0 30 -7.5 69t-27.5 78.5t-55.5 75.5t-91 58.5t-118.5 22.5t-118.5 -22t-95.5 -62.5t-62 -96.5t-22 -119zM60 342q0 75 27 141t75.5 114t114.5 74.5t141 26.5
q77 0 143 -26t113.5 -73t73.5 -112.5t26 -140.5t-27 -141t-75.5 -114t-114.5 -74.5t-141 -26.5q-77 0 -143 26t-113.5 73t-73.5 112.5t-26 140.5zM264 341q0 37 8.5 73.5t29 66t53 48t77.5 18.5q30 0 58.5 -9t46.5 -29l-30 -41q-13 14 -33.5 22.5t-44.5 8.5q-21 0 -47 -11
t-44.5 -47.5t-18.5 -93.5q0 -40 10.5 -76.5t37.5 -56t65 -19.5q23 0 42.5 8.5t31.5 20.5l28 -41q-39 -37 -108 -37q-45 0 -83.5 20t-58.5 66.5t-20 108.5z" />
    <glyph glyph-name="guillemotleft" unicode="&#xab;" horiz-adv-x="463" 
d="M233 267l140 199l40 -30l-112 -169l112 -169l-40 -29zM50 267l140 199l40 -30l-112 -169l112 -169l-40 -29z" />
    <glyph glyph-name="logicalnot" unicode="&#xac;" horiz-adv-x="520" 
d="M500 199h-58v190h-422v56h480v-246z" />
    <glyph glyph-name="registered" unicode="&#xae;" horiz-adv-x="517" 
d="M257 335q73 0 120.5 48t47.5 120q0 26 -8.5 54.5t-28.5 53.5t-53 42.5t-77 17.5q-73 0 -119.5 -47.5t-46.5 -118.5t47.5 -120.5t117.5 -49.5zM258 297q-92 0 -150 57t-58 148q0 90 59.5 149.5t149.5 59.5q92 0 150 -57t58 -148q0 -90 -59.5 -149.5t-149.5 -59.5zM258 483
h-24v-81h-39v215h67q33 0 52.5 -16t19.5 -47q0 -50 -39 -60l51 -92h-47zM234 517h26q34 0 34 33q0 32 -31 32h-29v-65z" />
    <glyph glyph-name="macron" unicode="&#xaf;" horiz-adv-x="500" 
d="M401 676h-303v46h303v-46z" />
    <glyph glyph-name="degree" unicode="&#xb0;" horiz-adv-x="332" 
d="M30 563q0 58 39.5 96.5t98.5 38.5t96.5 -36t37.5 -95q0 -58 -39.5 -96.5t-98.5 -38.5t-96.5 36t-37.5 95zM78 565q0 -18 8.5 -39t31.5 -36.5t50 -15.5q37 0 61.5 26.5t24.5 64.5q0 18 -8.5 39t-31.5 36.5t-50 15.5q-37 0 -61.5 -26.5t-24.5 -64.5z" />
    <glyph glyph-name="plusminus" unicode="&#xb1;" horiz-adv-x="520" 
d="M30 309v56h200v202h58v-202h201v-56h-201v-200h201v-56h-459v56h200v200h-200z" />
    <glyph glyph-name="uni00B2" unicode="&#xb2;" horiz-adv-x="339" 
d="M153 383l-64 -61l81 1h131v-46h-271l-7 42l162 167q27 28 39.5 51t12.5 51q0 31 -19 49.5t-55 18.5q-31 0 -51 -18t-26 -44l-52 14q8 28 28.5 50t48 31t51.5 9q44 0 74.5 -17t41.5 -42t11 -47q0 -66 -67 -136z" />
    <glyph glyph-name="uni00B3" unicode="&#xb3;" horiz-adv-x="344" 
d="M293 588q0 -74 -60 -103q32 -7 51.5 -31t19.5 -64q0 -59 -37.5 -91t-107.5 -32q-44 0 -76.5 17.5t-50.5 43.5l38 29q34 -47 93 -47q90 0 90 78q0 40 -25.5 57t-78.5 17h-35v40h35q91 0 91 82q0 30 -20 50.5t-58 20.5q-24 0 -46.5 -13t-32.5 -44l-48 13q10 38 45 62.5
t84 24.5q43 0 74.5 -17t43 -43t11.5 -50z" />
    <glyph glyph-name="acute" unicode="&#xb4;" horiz-adv-x="500" 
d="M364 743l-188 -117l-40 28l167 122z" />
    <glyph glyph-name="uni00B5" unicode="&#xb5;" horiz-adv-x="599" 
d="M544 51l10 1v-51l-21 -1q-36 0 -61.5 18t-36.5 55h-4q-17 -33 -56 -57.5t-101 -24.5q-23 0 -49 5.5t-46.5 18.5t-33.5 28v-237h-58v733h58v-342q0 -79 31.5 -115t98.5 -36q28 0 55.5 8.5t48 27t32 47.5t11.5 66v344h58v-379q0 -59 15 -84t49 -25z" />
    <glyph glyph-name="uni00B5" unicode="&#x3bc;" horiz-adv-x="599" 
d="M544 51l10 1v-51l-21 -1q-36 0 -61.5 18t-36.5 55h-4q-17 -33 -56 -57.5t-101 -24.5q-23 0 -49 5.5t-46.5 18.5t-33.5 28v-237h-58v733h58v-342q0 -79 31.5 -115t98.5 -36q28 0 55.5 8.5t48 27t32 47.5t11.5 66v344h58v-379q0 -59 15 -84t49 -25z" />
    <glyph glyph-name="paragraph" unicode="&#xb6;" horiz-adv-x="549" 
d="M416 701v-701h-48v701h48zM263 603v-529q0 -153 -106 -235l-36 34q52 42 72.5 86.5t20.5 118.5v241h-18q-37 0 -68.5 11t-54.5 34t-35.5 58.5t-12.5 81.5q0 98 51 147.5t144 49.5h93v-30z" />
    <glyph glyph-name="periodcentered" unicode="&#xb7;" horiz-adv-x="214" 
d="M55 352q0 22 15 37.5t36 15.5q22 0 37.5 -15.5t15.5 -37.5q0 -21 -15.5 -36t-37.5 -15q-21 0 -36 15t-15 36z" />
    <glyph glyph-name="cedilla" unicode="&#xb8;" horiz-adv-x="500" 
d="M305 -114q0 -45 -25 -73.5t-63 -42.5l-23 34q24 12 39.5 30.5t15.5 46.5q0 32 -23 64v4h61q8 -11 13 -29t5 -34z" />
    <glyph glyph-name="uni00B9" unicode="&#xb9;" horiz-adv-x="280" 
d="M146 688h54v-411h-52v261l2 101l-41 -30l-68 -42l-28 43z" />
    <glyph glyph-name="guillemotright" unicode="&#xbb;" horiz-adv-x="463" 
d="M90 466l140 -199l-140 -198l-40 29l112 169l-112 169zM273 466l140 -199l-140 -198l-40 29l112 169l-112 169z" />
    <glyph glyph-name="questiondown" unicode="&#xbf;" horiz-adv-x="389" 
d="M224 -105q35 0 65.5 9.5t58.5 36.5l40 -49q-35 -30 -75.5 -41.5t-87.5 -11.5q-80 0 -127 40t-47 113q0 49 17.5 87t40.5 63t47 48l112 106q12 -5 20 -14.5t8 -22.5q0 -12 -9.5 -28t-49 -50t-57 -50.5t-32 -36t-25 -43t-10.5 -51.5q0 -49 29.5 -77t81.5 -28zM279 498
q0 -22 -15 -37.5t-36 -15.5q-22 0 -37.5 15.5t-15.5 37.5q0 21 15.5 36t37.5 15q21 0 36 -15t15 -36z" />
    <glyph glyph-name="Agrave" unicode="&#xc0;" horiz-adv-x="575" 
d="M237 701h101l231 -701h-64l-71 216h-294l-71 -216h-63zM248 546l-90 -274h258l-89 272l-38 116h-4zM361 796l-188 117l61 33l167 -122z" />
    <glyph glyph-name="Aacute" unicode="&#xc1;" horiz-adv-x="575" 
d="M237 701h101l231 -701h-64l-71 216h-294l-71 -216h-63zM248 546l-90 -274h258l-89 272l-38 116h-4zM401 913l-188 -117l-40 28l167 122z" />
    <glyph glyph-name="Acircumflex" unicode="&#xc2;" horiz-adv-x="575" 
d="M237 701h101l231 -701h-64l-71 216h-294l-71 -216h-63zM248 546l-90 -274h258l-89 272l-38 116h-4zM287 954l189 -124l-22 -35l-167 98l-166 -98l-23 35z" />
    <glyph glyph-name="Atilde" unicode="&#xc3;" horiz-adv-x="575" 
d="M237 701h101l231 -701h-64l-71 216h-294l-71 -216h-63zM248 546l-90 -274h258l-89 272l-38 116h-4zM224 904q26 0 70 -16.5t62 -16.5t34.5 7t26.5 20l24 -40q-3 -6 -16 -16t-32 -15.5t-37 -5.5q-22 0 -67 17t-66 17q-40 0 -67 -24l-23 40q1 1 5 4t9 7t15 9t24 8.5t24 4
t14 0.5z" />
    <glyph glyph-name="Adieresis" unicode="&#xc4;" horiz-adv-x="575" 
d="M237 701h101l231 -701h-64l-71 216h-294l-71 -216h-63zM248 546l-90 -274h258l-89 272l-38 116h-4zM158 878q0 18 11.5 29.5t29.5 11.5q17 0 29 -11.5t12 -29.5q0 -17 -12 -29t-29 -12q-18 0 -29.5 12t-11.5 29zM334 878q0 18 12 29.5t29 11.5q18 0 29.5 -11.5
t11.5 -29.5q0 -17 -11.5 -29t-29.5 -12q-17 0 -29 12t-12 29z" />
    <glyph glyph-name="Aring" unicode="&#xc5;" horiz-adv-x="575" 
d="M237 701h101l231 -701h-64l-71 216h-294l-71 -216h-63zM248 546l-90 -274h258l-89 272l-38 116h-4zM184 883q0 21 10 46t36 41.5t59 16.5q45 0 73 -26.5t28 -71.5q0 -21 -10 -46t-36 -41.5t-59 -16.5q-45 0 -73 26.5t-28 71.5zM347 885q0 28 -17 45.5t-45 17.5
q-27 0 -43 -16.5t-16 -44.5t17.5 -45.5t45.5 -17.5q27 0 42.5 16.5t15.5 44.5z" />
    <glyph glyph-name="AE" unicode="&#xc6;" horiz-adv-x="830" 
d="M785 0h-353v225h-245l-127 -225h-65l396 701h379v-56h-282v-262h247v-56h-247v-271h297v-56zM432 657h-4l-210 -376h214v376z" />
    <glyph glyph-name="Ccedilla" unicode="&#xc7;" horiz-adv-x="563" 
d="M65 346q0 174 73 269.5t208 95.5q49 0 97 -12.5t80 -38.5l-37 -48q-54 42 -147 42q-100 0 -156 -75.5t-56 -226.5q0 -150 55.5 -227.5t162.5 -77.5q98 0 140 39l34 -43q-25 -23 -72 -38t-112 -15q-51 0 -100 16.5t-86.5 57.5t-60.5 110t-23 172zM397 -114
q0 -45 -25 -73.5t-63 -42.5l-23 34q24 12 39.5 30.5t15.5 46.5q0 32 -23 64v4h61q8 -11 13 -29t5 -34z" />
    <glyph glyph-name="Egrave" unicode="&#xc8;" horiz-adv-x="518" 
d="M473 0h-375v701h360v-56h-300v-262h265v-56h-265v-271h315v-56zM333 796l-188 117l61 33l167 -122z" />
    <glyph glyph-name="Eacute" unicode="&#xc9;" horiz-adv-x="518" 
d="M473 0h-375v701h360v-56h-300v-262h265v-56h-265v-271h315v-56zM373 913l-188 -117l-40 28l167 122z" />
    <glyph glyph-name="Ecircumflex" unicode="&#xca;" horiz-adv-x="518" 
d="M473 0h-375v701h360v-56h-300v-262h265v-56h-265v-271h315v-56zM259 954l189 -124l-22 -35l-167 98l-166 -98l-23 35z" />
    <glyph glyph-name="Edieresis" unicode="&#xcb;" horiz-adv-x="518" 
d="M473 0h-375v701h360v-56h-300v-262h265v-56h-265v-271h315v-56zM130 878q0 18 11.5 29.5t29.5 11.5q17 0 29 -11.5t12 -29.5q0 -17 -12 -29t-29 -12q-18 0 -29.5 12t-11.5 29zM306 878q0 18 12 29.5t29 11.5q18 0 29.5 -11.5t11.5 -29.5q0 -17 -11.5 -29t-29.5 -12
q-17 0 -29 12t-12 29z" />
    <glyph glyph-name="Igrave" unicode="&#xcc;" horiz-adv-x="276" 
d="M108 0v701h60v-701h-60zM212 796l-188 117l61 33l167 -122z" />
    <glyph glyph-name="Iacute" unicode="&#xcd;" horiz-adv-x="276" 
d="M108 0v701h60v-701h-60zM252 913l-188 -117l-40 28l167 122z" />
    <glyph glyph-name="Icircumflex" unicode="&#xce;" horiz-adv-x="276" 
d="M108 0v701h60v-701h-60zM138 954l189 -124l-22 -35l-167 98l-166 -98l-23 35z" />
    <glyph glyph-name="Idieresis" unicode="&#xcf;" horiz-adv-x="276" 
d="M108 0v701h60v-701h-60zM9 878q0 18 11.5 29.5t29.5 11.5q17 0 29 -11.5t12 -29.5q0 -17 -12 -29t-29 -12q-18 0 -29.5 12t-11.5 29zM185 878q0 18 12 29.5t29 11.5q18 0 29.5 -11.5t11.5 -29.5q0 -17 -11.5 -29t-29.5 -12q-17 0 -29 12t-12 29z" />
    <glyph glyph-name="Eth" unicode="&#xd0;" horiz-adv-x="643" 
d="M104 0v342h-74v48h74v311h175q154 0 226.5 -84t72.5 -262q0 -180 -74.5 -267.5t-227.5 -87.5h-172zM336 342h-172v-285h115q91 0 141 32.5t73 95t23 162.5q0 80 -15.5 137.5t-46.5 92.5t-76 51t-105 16h-109v-254h172v-48z" />
    <glyph glyph-name="Ntilde" unicode="&#xd1;" horiz-adv-x="690" 
d="M163 631h-8v-631h-57v701h93l261 -489l76 -142h8v631h56v-701h-92l-260 487zM282 904q26 0 70 -16.5t62 -16.5t34.5 7t26.5 20l24 -40q-3 -6 -16 -16t-32 -15.5t-37 -5.5q-22 0 -67 17t-66 17q-40 0 -67 -24l-23 40q1 1 5 4t9 7t15 9t24 8.5t24 4t14 0.5z" />
    <glyph glyph-name="Ograve" unicode="&#xd2;" horiz-adv-x="664" 
d="M127 354q0 -104 22 -171t66.5 -101.5t117.5 -34.5q48 0 85.5 15.5t64 50t40.5 93t14 141.5q0 104 -22 171t-66 101.5t-118 34.5q-48 0 -85.5 -15.5t-64 -50t-40.5 -93t-14 -141.5zM599 354q0 -364 -271 -364q-62 0 -110.5 20t-82.5 63t-52 112t-18 162q0 364 271 364
q62 0 110.5 -20t82.5 -63t52 -112t18 -162zM406 796l-188 117l61 33l167 -122z" />
    <glyph glyph-name="Oacute" unicode="&#xd3;" horiz-adv-x="664" 
d="M127 354q0 -104 22 -171t66.5 -101.5t117.5 -34.5q48 0 85.5 15.5t64 50t40.5 93t14 141.5q0 104 -22 171t-66 101.5t-118 34.5q-48 0 -85.5 -15.5t-64 -50t-40.5 -93t-14 -141.5zM599 354q0 -364 -271 -364q-62 0 -110.5 20t-82.5 63t-52 112t-18 162q0 364 271 364
q62 0 110.5 -20t82.5 -63t52 -112t18 -162zM446 913l-188 -117l-40 28l167 122z" />
    <glyph glyph-name="Ocircumflex" unicode="&#xd4;" horiz-adv-x="664" 
d="M127 354q0 -104 22 -171t66.5 -101.5t117.5 -34.5q48 0 85.5 15.5t64 50t40.5 93t14 141.5q0 104 -22 171t-66 101.5t-118 34.5q-48 0 -85.5 -15.5t-64 -50t-40.5 -93t-14 -141.5zM599 354q0 -364 -271 -364q-62 0 -110.5 20t-82.5 63t-52 112t-18 162q0 364 271 364
q62 0 110.5 -20t82.5 -63t52 -112t18 -162zM332 954l189 -124l-22 -35l-167 98l-166 -98l-23 35z" />
    <glyph glyph-name="Otilde" unicode="&#xd5;" horiz-adv-x="664" 
d="M127 354q0 -104 22 -171t66.5 -101.5t117.5 -34.5q48 0 85.5 15.5t64 50t40.5 93t14 141.5q0 104 -22 171t-66 101.5t-118 34.5q-48 0 -85.5 -15.5t-64 -50t-40.5 -93t-14 -141.5zM599 354q0 -364 -271 -364q-62 0 -110.5 20t-82.5 63t-52 112t-18 162q0 364 271 364
q62 0 110.5 -20t82.5 -63t52 -112t18 -162zM269 904q26 0 70 -16.5t62 -16.5t34.5 7t26.5 20l24 -40q-3 -6 -16 -16t-32 -15.5t-37 -5.5q-22 0 -67 17t-66 17q-40 0 -67 -24l-23 40q1 1 5 4t9 7t15 9t24 8.5t24 4t14 0.5z" />
    <glyph glyph-name="Odieresis" unicode="&#xd6;" horiz-adv-x="664" 
d="M127 354q0 -104 22 -171t66.5 -101.5t117.5 -34.5q48 0 85.5 15.5t64 50t40.5 93t14 141.5q0 104 -22 171t-66 101.5t-118 34.5q-48 0 -85.5 -15.5t-64 -50t-40.5 -93t-14 -141.5zM599 354q0 -364 -271 -364q-62 0 -110.5 20t-82.5 63t-52 112t-18 162q0 364 271 364
q62 0 110.5 -20t82.5 -63t52 -112t18 -162zM203 878q0 18 11.5 29.5t29.5 11.5q17 0 29 -11.5t12 -29.5q0 -17 -12 -29t-29 -12q-18 0 -29.5 12t-11.5 29zM379 878q0 18 12 29.5t29 11.5q18 0 29.5 -11.5t11.5 -29.5q0 -17 -11.5 -29t-29.5 -12q-17 0 -29 12t-12 29z" />
    <glyph glyph-name="multiply" unicode="&#xd7;" horiz-adv-x="520" 
d="M64 495l39 38l156 -158l158 159l39 -40l-158 -157l158 -157l-39 -38l-157 157l-157 -158l-39 40l158 157z" />
    <glyph glyph-name="Oslash" unicode="&#xd8;" horiz-adv-x="664" 
d="M599 354q0 -364 -271 -364q-106 0 -167 54l-34 -53h-62l61 93q-61 87 -61 263q0 364 271 364q103 0 166 -54l36 54h61l-62 -94q62 -90 62 -263zM127 354q0 -138 38 -211l302 460q-48 51 -136 51q-48 0 -85.5 -15.5t-64 -50t-40.5 -93t-14 -141.5zM537 347q0 135 -38 211
l-302 -460q50 -51 136 -51q48 0 85.5 15.5t64 50t40.5 93t14 141.5z" />
    <glyph glyph-name="Ugrave" unicode="&#xd9;" horiz-adv-x="675" 
d="M340 47q180 0 180 182v472h60v-466q0 -117 -64.5 -181t-181.5 -64q-114 0 -176.5 62.5t-62.5 176.5v472h60v-465q0 -95 49.5 -142t135.5 -47zM411 796l-188 117l61 33l167 -122z" />
    <glyph glyph-name="Uacute" unicode="&#xda;" horiz-adv-x="675" 
d="M340 47q180 0 180 182v472h60v-466q0 -117 -64.5 -181t-181.5 -64q-114 0 -176.5 62.5t-62.5 176.5v472h60v-465q0 -95 49.5 -142t135.5 -47zM451 913l-188 -117l-40 28l167 122z" />
    <glyph glyph-name="Ucircumflex" unicode="&#xdb;" horiz-adv-x="675" 
d="M340 47q180 0 180 182v472h60v-466q0 -117 -64.5 -181t-181.5 -64q-114 0 -176.5 62.5t-62.5 176.5v472h60v-465q0 -95 49.5 -142t135.5 -47zM337 954l189 -124l-22 -35l-167 98l-166 -98l-23 35z" />
    <glyph glyph-name="Udieresis" unicode="&#xdc;" horiz-adv-x="675" 
d="M340 47q180 0 180 182v472h60v-466q0 -117 -64.5 -181t-181.5 -64q-114 0 -176.5 62.5t-62.5 176.5v472h60v-465q0 -95 49.5 -142t135.5 -47zM208 878q0 18 11.5 29.5t29.5 11.5q17 0 29 -11.5t12 -29.5q0 -17 -12 -29t-29 -12q-18 0 -29.5 12t-11.5 29zM384 878
q0 18 12 29.5t29 11.5q18 0 29.5 -11.5t11.5 -29.5q0 -17 -11.5 -29t-29.5 -12q-17 0 -29 12t-12 29z" />
    <glyph glyph-name="Yacute" unicode="&#xdd;" horiz-adv-x="518" 
d="M520 701h-66l-191 -377h-4l-191 377h-70l231 -441v-260h60v260zM373 913l-188 -117l-40 28l167 122z" />
    <glyph glyph-name="Thorn" unicode="&#xde;" horiz-adv-x="487" 
d="M154 701v-149q15 6 43.5 10.5t51.5 4.5q63 0 105 -26t64 -71t22 -109q0 -75 -23 -125.5t-68 -78t-113 -27.5q-46 0 -82 11v-141h-56v701h56zM230 509q-15 0 -39 -4t-35 -8v-297q36 -12 76 -12q74 0 110 43.5t36 122.5q0 76 -37 115.5t-111 39.5z" />
    <glyph glyph-name="germandbls" unicode="&#xdf;" horiz-adv-x="571" 
d="M207 31l26 48q51 -33 116 -33q25 0 53.5 8.5t47 31.5t18.5 53q0 16 -6.5 34.5t-26 37.5t-64.5 45t-59.5 37t-24.5 22t-17.5 26.5t-7.5 36.5q0 18 9.5 37.5t45.5 54.5t47.5 51t18.5 34.5t7 42.5q0 23 -11 47t-39.5 38.5t-65.5 14.5q-36 0 -66.5 -15.5t-46.5 -50.5t-16 -80
v-552h-58v552q0 62 23 106t66.5 69t103.5 25q76 0 122 -42.5t46 -111.5q0 -17 -4 -37.5t-15.5 -42.5t-27 -40t-46.5 -48t-31 -48q0 -13 10.5 -28.5t56.5 -42.5t61.5 -38.5t27.5 -23t21.5 -25.5t17 -34t7.5 -46q0 -45 -23.5 -79.5t-63 -53t-93.5 -18.5q-42 0 -79.5 10.5
t-59.5 27.5z" />
    <glyph glyph-name="agrave" unicode="&#xe0;" horiz-adv-x="544" 
d="M372 122v133q-53 2 -99.5 -4.5t-81.5 -21t-55 -38.5t-20 -56q0 -30 16 -53.5t41.5 -33t49.5 -9.5q47 0 87.5 24.5t61.5 58.5zM251 546q83 0 129 -40t46 -119v-252q0 -41 14 -66t43 -25h13v-45l-16 -2q-38 0 -63.5 19t-34.5 48h-4q-38 -42 -78.5 -58.5t-87.5 -16.5
q-26 0 -53.5 8t-53 29t-37 50.5t-11.5 53.5q0 32 14.5 64t55 59.5t106.5 40t139 11.5v63q0 35 -9 62t-35 44.5t-80 17.5q-85 0 -131 -67l-43 36q30 41 75.5 63t101.5 22zM346 626l-188 117l61 33l167 -122z" />
    <glyph glyph-name="aacute" unicode="&#xe1;" horiz-adv-x="544" 
d="M372 122v133q-53 2 -99.5 -4.5t-81.5 -21t-55 -38.5t-20 -56q0 -30 16 -53.5t41.5 -33t49.5 -9.5q47 0 87.5 24.5t61.5 58.5zM251 546q83 0 129 -40t46 -119v-252q0 -41 14 -66t43 -25h13v-45l-16 -2q-38 0 -63.5 19t-34.5 48h-4q-38 -42 -78.5 -58.5t-87.5 -16.5
q-26 0 -53.5 8t-53 29t-37 50.5t-11.5 53.5q0 32 14.5 64t55 59.5t106.5 40t139 11.5v63q0 35 -9 62t-35 44.5t-80 17.5q-85 0 -131 -67l-43 36q30 41 75.5 63t101.5 22zM386 743l-188 -117l-40 28l167 122z" />
    <glyph glyph-name="acircumflex" unicode="&#xe2;" horiz-adv-x="544" 
d="M372 122v133q-53 2 -99.5 -4.5t-81.5 -21t-55 -38.5t-20 -56q0 -30 16 -53.5t41.5 -33t49.5 -9.5q47 0 87.5 24.5t61.5 58.5zM251 546q83 0 129 -40t46 -119v-252q0 -41 14 -66t43 -25h13v-45l-16 -2q-38 0 -63.5 19t-34.5 48h-4q-38 -42 -78.5 -58.5t-87.5 -16.5
q-26 0 -53.5 8t-53 29t-37 50.5t-11.5 53.5q0 32 14.5 64t55 59.5t106.5 40t139 11.5v63q0 35 -9 62t-35 44.5t-80 17.5q-85 0 -131 -67l-43 36q30 41 75.5 63t101.5 22zM272 784l189 -124l-22 -35l-167 98l-166 -98l-23 35z" />
    <glyph glyph-name="atilde" unicode="&#xe3;" horiz-adv-x="544" 
d="M372 122v133q-53 2 -99.5 -4.5t-81.5 -21t-55 -38.5t-20 -56q0 -30 16 -53.5t41.5 -33t49.5 -9.5q47 0 87.5 24.5t61.5 58.5zM251 546q83 0 129 -40t46 -119v-252q0 -41 14 -66t43 -25h13v-45l-16 -2q-38 0 -63.5 19t-34.5 48h-4q-38 -42 -78.5 -58.5t-87.5 -16.5
q-26 0 -53.5 8t-53 29t-37 50.5t-11.5 53.5q0 32 14.5 64t55 59.5t106.5 40t139 11.5v63q0 35 -9 62t-35 44.5t-80 17.5q-85 0 -131 -67l-43 36q30 41 75.5 63t101.5 22zM209 734q26 0 70 -16.5t62 -16.5t34.5 7t26.5 20l24 -40q-3 -6 -16 -16t-32 -15.5t-37 -5.5
q-22 0 -67 17t-66 17q-40 0 -67 -24l-23 40q1 1 5 4t9 7t15 9t24 8.5t24 4t14 0.5z" />
    <glyph glyph-name="adieresis" unicode="&#xe4;" horiz-adv-x="544" 
d="M372 122v133q-53 2 -99.5 -4.5t-81.5 -21t-55 -38.5t-20 -56q0 -30 16 -53.5t41.5 -33t49.5 -9.5q47 0 87.5 24.5t61.5 58.5zM251 546q83 0 129 -40t46 -119v-252q0 -41 14 -66t43 -25h13v-45l-16 -2q-38 0 -63.5 19t-34.5 48h-4q-38 -42 -78.5 -58.5t-87.5 -16.5
q-26 0 -53.5 8t-53 29t-37 50.5t-11.5 53.5q0 32 14.5 64t55 59.5t106.5 40t139 11.5v63q0 35 -9 62t-35 44.5t-80 17.5q-85 0 -131 -67l-43 36q30 41 75.5 63t101.5 22zM143 708q0 18 11.5 29.5t29.5 11.5q17 0 29 -11.5t12 -29.5q0 -17 -12 -29t-29 -12q-18 0 -29.5 12
t-11.5 29zM319 708q0 18 12 29.5t29 11.5q18 0 29.5 -11.5t11.5 -29.5q0 -17 -11.5 -29t-29.5 -12q-17 0 -29 12t-12 29z" />
    <glyph glyph-name="aring" unicode="&#xe5;" horiz-adv-x="544" 
d="M372 122v133q-53 2 -99.5 -4.5t-81.5 -21t-55 -38.5t-20 -56q0 -30 16 -53.5t41.5 -33t49.5 -9.5q47 0 87.5 24.5t61.5 58.5zM251 546q83 0 129 -40t46 -119v-252q0 -41 14 -66t43 -25h13v-45l-16 -2q-38 0 -63.5 19t-34.5 48h-4q-38 -42 -78.5 -58.5t-87.5 -16.5
q-26 0 -53.5 8t-53 29t-37 50.5t-11.5 53.5q0 32 14.5 64t55 59.5t106.5 40t139 11.5v63q0 35 -9 62t-35 44.5t-80 17.5q-85 0 -131 -67l-43 36q30 41 75.5 63t101.5 22zM169 713q0 21 10 46t36 41.5t59 16.5q45 0 73 -26.5t28 -71.5q0 -21 -10 -46t-36 -41.5t-59 -16.5
q-45 0 -73 26.5t-28 71.5zM332 715q0 28 -17 45.5t-45 17.5q-27 0 -43 -16.5t-16 -44.5t17.5 -45.5t45.5 -17.5q27 0 42.5 16.5t15.5 44.5z" />
    <glyph glyph-name="ae" unicode="&#xe6;" horiz-adv-x="844" 
d="M409 92h-4q-39 -104 -184 -104q-44 0 -84.5 15.5t-62.5 52t-22 79.5q0 92 79.5 134t239.5 42v62q0 60 -32.5 89.5t-94.5 29.5q-81 0 -124 -63l-48 37q35 42 78.5 61t97.5 19q67 0 109 -23t58 -64h4q60 88 168 88q91 0 141.5 -57t50.5 -153q0 -48 -4 -91h-349
q4 -67 23 -109.5t57 -65.5t102 -23q32 0 69 10t67 37l28 -50q-24 -22 -69.5 -36.5t-102.5 -14.5q-141 0 -191 98zM224 37q77 0 112 39.5t35 107.5v77q-136 0 -198.5 -27t-62.5 -92q0 -21 11 -46t39 -42t64 -17zM578 493q-69 0 -108 -50t-44 -143h293l1 35q0 76 -36 117
t-106 41z" />
    <glyph glyph-name="ccedilla" unicode="&#xe7;" horiz-adv-x="463" 
d="M58 261q0 54 11 106t41.5 96.5t76.5 64t94 19.5q43 0 82 -13t63 -37l-39 -47q-45 43 -111 43q-26 0 -53.5 -8.5t-50.5 -31.5t-38.5 -67t-15.5 -116q0 -224 158 -224q71 0 109 40l35 -45q-13 -13 -36 -25.5t-53.5 -18t-59.5 -5.5q-48 0 -87.5 15t-67.5 47.5t-43 84.5
t-15 122zM314 -114q0 -45 -25 -73.5t-63 -42.5l-23 34q24 12 39.5 30.5t15.5 46.5q0 32 -23 64v4h61q8 -11 13 -29t5 -34z" />
    <glyph glyph-name="egrave" unicode="&#xe8;" horiz-adv-x="535" 
d="M424 87l27 -48q-27 -19 -70 -32t-92 -13q-56 0 -99 15t-72.5 48t-44.5 87t-15 128q0 53 12.5 104.5t41 89t71.5 59.5t97 22q34 0 68 -10t61 -34t44 -65t17 -100q0 -39 -5 -92h-348q4 -67 22.5 -109.5t56 -65.5t101.5 -23q27 0 64 9.5t63 29.5zM273 493q-71 0 -111 -51.5
t-45 -141.5h293l1 36q0 157 -138 157zM341 626l-188 117l61 33l167 -122z" />
    <glyph glyph-name="eacute" unicode="&#xe9;" horiz-adv-x="535" 
d="M424 87l27 -48q-27 -19 -70 -32t-92 -13q-56 0 -99 15t-72.5 48t-44.5 87t-15 128q0 53 12.5 104.5t41 89t71.5 59.5t97 22q34 0 68 -10t61 -34t44 -65t17 -100q0 -39 -5 -92h-348q4 -67 22.5 -109.5t56 -65.5t101.5 -23q27 0 64 9.5t63 29.5zM273 493q-71 0 -111 -51.5
t-45 -141.5h293l1 36q0 157 -138 157zM381 743l-188 -117l-40 28l167 122z" />
    <glyph glyph-name="ecircumflex" unicode="&#xea;" horiz-adv-x="535" 
d="M424 87l27 -48q-27 -19 -70 -32t-92 -13q-56 0 -99 15t-72.5 48t-44.5 87t-15 128q0 53 12.5 104.5t41 89t71.5 59.5t97 22q34 0 68 -10t61 -34t44 -65t17 -100q0 -39 -5 -92h-348q4 -67 22.5 -109.5t56 -65.5t101.5 -23q27 0 64 9.5t63 29.5zM273 493q-71 0 -111 -51.5
t-45 -141.5h293l1 36q0 157 -138 157zM267 784l189 -124l-22 -35l-167 98l-166 -98l-23 35z" />
    <glyph glyph-name="edieresis" unicode="&#xeb;" horiz-adv-x="535" 
d="M424 87l27 -48q-27 -19 -70 -32t-92 -13q-56 0 -99 15t-72.5 48t-44.5 87t-15 128q0 53 12.5 104.5t41 89t71.5 59.5t97 22q34 0 68 -10t61 -34t44 -65t17 -100q0 -39 -5 -92h-348q4 -67 22.5 -109.5t56 -65.5t101.5 -23q27 0 64 9.5t63 29.5zM273 493q-71 0 -111 -51.5
t-45 -141.5h293l1 36q0 157 -138 157zM138 708q0 18 11.5 29.5t29.5 11.5q17 0 29 -11.5t12 -29.5q0 -17 -12 -29t-29 -12q-18 0 -29.5 12t-11.5 29zM314 708q0 18 12 29.5t29 11.5q18 0 29.5 -11.5t11.5 -29.5q0 -17 -11.5 -29t-29.5 -12q-17 0 -29 12t-12 29z" />
    <glyph glyph-name="igrave" unicode="&#xec;" horiz-adv-x="287" 
d="M119 0v539h58v-539h-58zM218 626l-188 117l61 33l167 -122z" />
    <glyph glyph-name="iacute" unicode="&#xed;" horiz-adv-x="287" 
d="M119 0v539h58v-539h-58zM258 743l-188 -117l-40 28l167 122z" />
    <glyph glyph-name="icircumflex" unicode="&#xee;" horiz-adv-x="287" 
d="M119 0v539h58v-539h-58zM144 784l189 -124l-22 -35l-167 98l-166 -98l-23 35z" />
    <glyph glyph-name="idieresis" unicode="&#xef;" horiz-adv-x="287" 
d="M119 0v539h58v-539h-58zM15 708q0 18 11.5 29.5t29.5 11.5q17 0 29 -11.5t12 -29.5q0 -17 -12 -29t-29 -12q-18 0 -29.5 12t-11.5 29zM191 708q0 18 12 29.5t29 11.5q18 0 29.5 -11.5t11.5 -29.5q0 -17 -11.5 -29t-29.5 -12q-17 0 -29 12t-12 29z" />
    <glyph glyph-name="eth" unicode="&#xf0;" horiz-adv-x="518" 
d="M453 263q0 -90 -26 -147.5t-71.5 -86.5t-111.5 -29q-43 0 -79.5 15t-62.5 44t-40 69.5t-14 89.5q0 39 11 79t36.5 72t65 52t91.5 20q30 0 62 -7.5t53 -20.5l3 2q-28 84 -84 150l-142 -86v56l108 66q-52 50 -125 94v6h88q47 -28 87 -70l119 73v-56l-86 -53
q38 -47 66.5 -106t40 -119t11.5 -107zM393 257q0 42 -8 87q-19 16 -55.5 29.5t-75.5 13.5q-41 0 -76 -17.5t-52.5 -56.5t-17.5 -90q0 -83 38.5 -125.5t106.5 -42.5q65 0 102.5 49.5t37.5 152.5z" />
    <glyph glyph-name="ntilde" unicode="&#xf1;" 
d="M480 371v-371h-58v357q0 67 -33 102.5t-94 35.5q-53 0 -93.5 -30.5t-56.5 -74.5v-390h-58v539h43l13 -59h4q18 25 60.5 47t95.5 22q82 0 128.5 -45t48.5 -133zM219 734q26 0 70 -16.5t62 -16.5t34.5 7t26.5 20l24 -40q-3 -6 -16 -16t-32 -15.5t-37 -5.5q-22 0 -67 17
t-66 17q-40 0 -67 -24l-23 40q1 1 5 4t9 7t15 9t24 8.5t24 4t14 0.5z" />
    <glyph glyph-name="ograve" unicode="&#xf2;" horiz-adv-x="550" 
d="M118 274q0 -116 38.5 -172t121.5 -56q82 0 118 54t36 168q0 115 -38.5 171t-121.5 56q-82 0 -118 -53.5t-36 -167.5zM272 -8q-214 0 -214 276q0 63 12.5 115t39 89t69 57t99.5 20q214 0 214 -275q0 -80 -17.5 -134.5t-48 -87.5t-71 -46.5t-83.5 -13.5zM349 626l-188 117
l61 33l167 -122z" />
    <glyph glyph-name="oacute" unicode="&#xf3;" horiz-adv-x="550" 
d="M118 274q0 -116 38.5 -172t121.5 -56q82 0 118 54t36 168q0 115 -38.5 171t-121.5 56q-82 0 -118 -53.5t-36 -167.5zM272 -8q-214 0 -214 276q0 63 12.5 115t39 89t69 57t99.5 20q214 0 214 -275q0 -80 -17.5 -134.5t-48 -87.5t-71 -46.5t-83.5 -13.5zM389 743l-188 -117
l-40 28l167 122z" />
    <glyph glyph-name="ocircumflex" unicode="&#xf4;" horiz-adv-x="550" 
d="M118 274q0 -116 38.5 -172t121.5 -56q82 0 118 54t36 168q0 115 -38.5 171t-121.5 56q-82 0 -118 -53.5t-36 -167.5zM272 -8q-214 0 -214 276q0 63 12.5 115t39 89t69 57t99.5 20q214 0 214 -275q0 -80 -17.5 -134.5t-48 -87.5t-71 -46.5t-83.5 -13.5zM275 784l189 -124
l-22 -35l-167 98l-166 -98l-23 35z" />
    <glyph glyph-name="otilde" unicode="&#xf5;" horiz-adv-x="550" 
d="M118 274q0 -116 38.5 -172t121.5 -56q82 0 118 54t36 168q0 115 -38.5 171t-121.5 56q-82 0 -118 -53.5t-36 -167.5zM272 -8q-214 0 -214 276q0 63 12.5 115t39 89t69 57t99.5 20q214 0 214 -275q0 -80 -17.5 -134.5t-48 -87.5t-71 -46.5t-83.5 -13.5zM212 734
q26 0 70 -16.5t62 -16.5t34.5 7t26.5 20l24 -40q-3 -6 -16 -16t-32 -15.5t-37 -5.5q-22 0 -67 17t-66 17q-40 0 -67 -24l-23 40q1 1 5 4t9 7t15 9t24 8.5t24 4t14 0.5z" />
    <glyph glyph-name="odieresis" unicode="&#xf6;" horiz-adv-x="550" 
d="M118 274q0 -116 38.5 -172t121.5 -56q82 0 118 54t36 168q0 115 -38.5 171t-121.5 56q-82 0 -118 -53.5t-36 -167.5zM272 -8q-214 0 -214 276q0 63 12.5 115t39 89t69 57t99.5 20q214 0 214 -275q0 -80 -17.5 -134.5t-48 -87.5t-71 -46.5t-83.5 -13.5zM146 708
q0 18 11.5 29.5t29.5 11.5q17 0 29 -11.5t12 -29.5q0 -17 -12 -29t-29 -12q-18 0 -29.5 12t-11.5 29zM322 708q0 18 12 29.5t29 11.5q18 0 29.5 -11.5t11.5 -29.5q0 -17 -11.5 -29t-29.5 -12q-17 0 -29 12t-12 29z" />
    <glyph glyph-name="divide" unicode="&#xf7;" horiz-adv-x="520" 
d="M30 309v56h459v-56h-459zM207 515q0 22 15 37.5t36 15.5q22 0 37.5 -15.5t15.5 -37.5q0 -21 -15.5 -36t-37.5 -15q-21 0 -36 15t-15 36zM207 159q0 22 15 37.5t36 15.5q22 0 37.5 -15.5t15.5 -37.5q0 -21 -15.5 -36t-37.5 -15q-21 0 -36 15t-15 36z" />
    <glyph glyph-name="oslash" unicode="&#xf8;" horiz-adv-x="550" 
d="M272 -8q-81 0 -130 38l-26 -39h-56v3l48 71q-50 68 -50 203q0 63 12.5 115t39 89t69 57t99.5 20q80 0 131 -39l26 39h55v-3l-48 -71q50 -69 50 -201q0 -80 -17.5 -134.5t-48 -87.5t-71 -46.5t-83.5 -13.5zM432 268q0 97 -27 152l-229 -340q37 -34 102 -34q82 0 118 54
t36 168zM118 274q0 -101 27 -154l230 340q-38 35 -103 35q-82 0 -118 -53.5t-36 -167.5z" />
    <glyph glyph-name="ugrave" unicode="&#xf9;" 
d="M84 168v371h58v-354q0 -72 32 -107t98 -35q64 0 105.5 37t41.5 111v348h58v-539h-43l-13 58h-4q-9 -14 -33 -31.5t-57 -27.5t-67 -10q-83 0 -128.5 45t-47.5 134zM356 626l-188 117l61 33l167 -122z" />
    <glyph glyph-name="uacute" unicode="&#xfa;" 
d="M84 168v371h58v-354q0 -72 32 -107t98 -35q64 0 105.5 37t41.5 111v348h58v-539h-43l-13 58h-4q-9 -14 -33 -31.5t-57 -27.5t-67 -10q-83 0 -128.5 45t-47.5 134zM396 743l-188 -117l-40 28l167 122z" />
    <glyph glyph-name="ucircumflex" unicode="&#xfb;" 
d="M84 168v371h58v-354q0 -72 32 -107t98 -35q64 0 105.5 37t41.5 111v348h58v-539h-43l-13 58h-4q-9 -14 -33 -31.5t-57 -27.5t-67 -10q-83 0 -128.5 45t-47.5 134zM282 784l189 -124l-22 -35l-167 98l-166 -98l-23 35z" />
    <glyph glyph-name="udieresis" unicode="&#xfc;" 
d="M84 168v371h58v-354q0 -72 32 -107t98 -35q64 0 105.5 37t41.5 111v348h58v-539h-43l-13 58h-4q-9 -14 -33 -31.5t-57 -27.5t-67 -10q-83 0 -128.5 45t-47.5 134zM153 708q0 18 11.5 29.5t29.5 11.5q17 0 29 -11.5t12 -29.5q0 -17 -12 -29t-29 -12q-18 0 -29.5 12
t-11.5 29zM329 708q0 18 12 29.5t29 11.5q18 0 29.5 -11.5t11.5 -29.5q0 -17 -11.5 -29t-29.5 -12q-17 0 -29 12t-12 29z" />
    <glyph glyph-name="yacute" unicode="&#xfd;" horiz-adv-x="486" 
d="M23 -200l9 55q22 -8 49 -8q52 0 84 30.5t54 98.5l-193 563h62l95 -288l64 -198h4q15 61 59 198l93 288h60l-192 -580q-31 -93 -79 -130t-115 -37q-28 0 -54 8zM357 743l-188 -117l-40 28l167 122z" />
    <glyph glyph-name="thorn" unicode="&#xfe;" horiz-adv-x="548" 
d="M490 284q0 -66 -16.5 -120.5t-48.5 -93.5t-81 -59.5t-111 -20.5q-20 0 -46.5 3.5t-41.5 8.5v-191h-58v941h58v-254h4q25 22 61.5 33.5t73.5 11.5q66 0 111.5 -31.5t70 -88t24.5 -139.5zM145 58q42 -14 97 -14q86 0 137 60.5t51 173.5q0 103 -40 157.5t-119 54.5
q-34 0 -70 -16.5t-56 -43.5v-372z" />
    <glyph glyph-name="ydieresis" unicode="&#xff;" horiz-adv-x="486" 
d="M23 -200l9 55q22 -8 49 -8q52 0 84 30.5t54 98.5l-193 563h62l95 -288l64 -198h4q15 61 59 198l93 288h60l-192 -580q-31 -93 -79 -130t-115 -37q-28 0 -54 8zM114 708q0 18 11.5 29.5t29.5 11.5q17 0 29 -11.5t12 -29.5q0 -17 -12 -29t-29 -12q-18 0 -29.5 12t-11.5 29z
M290 708q0 18 12 29.5t29 11.5q18 0 29.5 -11.5t11.5 -29.5q0 -17 -11.5 -29t-29.5 -12q-17 0 -29 12t-12 29z" />
    <glyph glyph-name="Amacron" unicode="&#x100;" horiz-adv-x="575" 
d="M237 701h101l231 -701h-64l-71 216h-294l-71 -216h-63zM248 546l-90 -274h258l-89 272l-38 116h-4zM439 846h-303v46h303v-46z" />
    <glyph glyph-name="amacron" unicode="&#x101;" horiz-adv-x="544" 
d="M372 122v133q-53 2 -99.5 -4.5t-81.5 -21t-55 -38.5t-20 -56q0 -30 16 -53.5t41.5 -33t49.5 -9.5q47 0 87.5 24.5t61.5 58.5zM251 546q83 0 129 -40t46 -119v-252q0 -41 14 -66t43 -25h13v-45l-16 -2q-38 0 -63.5 19t-34.5 48h-4q-38 -42 -78.5 -58.5t-87.5 -16.5
q-26 0 -53.5 8t-53 29t-37 50.5t-11.5 53.5q0 32 14.5 64t55 59.5t106.5 40t139 11.5v63q0 35 -9 62t-35 44.5t-80 17.5q-85 0 -131 -67l-43 36q30 41 75.5 63t101.5 22zM423 676h-303v46h303v-46z" />
    <glyph glyph-name="Abreve" unicode="&#x102;" horiz-adv-x="575" 
d="M237 701h101l231 -701h-64l-71 216h-294l-71 -216h-63zM248 546l-90 -274h258l-89 272l-38 116h-4zM287 815q-53 0 -94 24.5t-65 65.5l40 26q17 -30 48 -49t71 -19t71 19t48 49l40 -26q-24 -41 -65 -65.5t-94 -24.5z" />
    <glyph glyph-name="abreve" unicode="&#x103;" horiz-adv-x="544" 
d="M372 122v133q-53 2 -99.5 -4.5t-81.5 -21t-55 -38.5t-20 -56q0 -30 16 -53.5t41.5 -33t49.5 -9.5q47 0 87.5 24.5t61.5 58.5zM251 546q83 0 129 -40t46 -119v-252q0 -41 14 -66t43 -25h13v-45l-16 -2q-38 0 -63.5 19t-34.5 48h-4q-38 -42 -78.5 -58.5t-87.5 -16.5
q-26 0 -53.5 8t-53 29t-37 50.5t-11.5 53.5q0 32 14.5 64t55 59.5t106.5 40t139 11.5v63q0 35 -9 62t-35 44.5t-80 17.5q-85 0 -131 -67l-43 36q30 41 75.5 63t101.5 22zM272 645q-53 0 -94 24.5t-65 65.5l40 26q17 -30 48 -49t71 -19t71 19t48 49l40 -26q-24 -41 -65 -65.5
t-94 -24.5z" />
    <glyph glyph-name="Aogonek" unicode="&#x104;" horiz-adv-x="575" 
d="M591 -228q-25 -9 -70 -9q-58 0 -88.5 30t-30.5 76q0 22 10.5 48t35 50t54.5 42l-68 207h-294l-71 -216h-63l231 701h101l231 -701q-29 -15 -57.5 -37.5t-41 -46t-12.5 -42.5q0 -62 81 -62q5 0 19 1.5t25 6.5zM248 546l-90 -274h258l-89 272l-38 116h-4z" />
    <glyph glyph-name="aogonek" unicode="&#x105;" horiz-adv-x="544" 
d="M521 -227q-25 -9 -70 -9q-58 0 -88.5 30t-30.5 76q0 39 24.5 73.5t72.5 64.5q-13 6 -26.5 19.5t-20.5 36.5h-4q-38 -42 -78.5 -58.5t-87.5 -16.5q-26 0 -53.5 8t-53 29t-37 50.5t-11.5 53.5q0 32 14.5 64t55 59.5t106.5 40t139 11.5v63q0 35 -9 62t-35 44.5t-80 17.5
q-85 0 -131 -67l-43 36q30 41 75.5 63t101.5 22q83 0 129 -40t46 -119v-252q0 -41 14 -66t43 -25h13v-40l3 -3l-3 -1v-1l-3 -1q-55 -29 -80 -62.5t-25 -60.5q0 -62 81 -62q5 0 19 1.5t25 6.5zM372 122v133q-53 2 -99.5 -4.5t-81.5 -21t-55 -38.5t-20 -56q0 -30 16 -53.5
t41.5 -33t49.5 -9.5q47 0 87.5 24.5t61.5 58.5z" />
    <glyph glyph-name="Cacute" unicode="&#x106;" horiz-adv-x="563" 
d="M65 346q0 174 73 269.5t208 95.5q49 0 97 -12.5t80 -38.5l-37 -48q-54 42 -147 42q-100 0 -156 -75.5t-56 -226.5q0 -150 55.5 -227.5t162.5 -77.5q98 0 140 39l34 -43q-25 -23 -72 -38t-112 -15q-51 0 -100 16.5t-86.5 57.5t-60.5 110t-23 172zM451 913l-188 -117
l-40 28l167 122z" />
    <glyph glyph-name="cacute" unicode="&#x107;" horiz-adv-x="463" 
d="M58 261q0 54 11 106t41.5 96.5t76.5 64t94 19.5q43 0 82 -13t63 -37l-39 -47q-45 43 -111 43q-26 0 -53.5 -8.5t-50.5 -31.5t-38.5 -67t-15.5 -116q0 -224 158 -224q71 0 109 40l35 -45q-13 -13 -36 -25.5t-53.5 -18t-59.5 -5.5q-48 0 -87.5 15t-67.5 47.5t-43 84.5
t-15 122zM369 743l-188 -117l-40 28l167 122z" />
    <glyph glyph-name="Ccircumflex" unicode="&#x108;" horiz-adv-x="563" 
d="M65 346q0 174 73 269.5t208 95.5q49 0 97 -12.5t80 -38.5l-37 -48q-54 42 -147 42q-100 0 -156 -75.5t-56 -226.5q0 -150 55.5 -227.5t162.5 -77.5q98 0 140 39l34 -43q-25 -23 -72 -38t-112 -15q-51 0 -100 16.5t-86.5 57.5t-60.5 110t-23 172zM344 954l189 -124
l-22 -35l-167 98l-166 -98l-23 35z" />
    <glyph glyph-name="ccircumflex" unicode="&#x109;" horiz-adv-x="463" 
d="M58 261q0 54 11 106t41.5 96.5t76.5 64t94 19.5q43 0 82 -13t63 -37l-39 -47q-45 43 -111 43q-26 0 -53.5 -8.5t-50.5 -31.5t-38.5 -67t-15.5 -116q0 -224 158 -224q71 0 109 40l35 -45q-13 -13 -36 -25.5t-53.5 -18t-59.5 -5.5q-48 0 -87.5 15t-67.5 47.5t-43 84.5
t-15 122zM258 784l189 -124l-22 -35l-167 98l-166 -98l-23 35z" />
    <glyph glyph-name="Cdotaccent" unicode="&#x10a;" horiz-adv-x="563" 
d="M65 346q0 174 73 269.5t208 95.5q49 0 97 -12.5t80 -38.5l-37 -48q-54 42 -147 42q-100 0 -156 -75.5t-56 -226.5q0 -150 55.5 -227.5t162.5 -77.5q98 0 140 39l34 -43q-25 -23 -72 -38t-112 -15q-51 0 -100 16.5t-86.5 57.5t-60.5 110t-23 172zM293 870q0 21 14 35
t34 14q21 0 35 -14t14 -35q0 -20 -14 -34t-35 -14q-20 0 -34 14t-14 34z" />
    <glyph glyph-name="cdotaccent" unicode="&#x10b;" horiz-adv-x="463" 
d="M58 261q0 54 11 106t41.5 96.5t76.5 64t94 19.5q43 0 82 -13t63 -37l-39 -47q-45 43 -111 43q-26 0 -53.5 -8.5t-50.5 -31.5t-38.5 -67t-15.5 -116q0 -224 158 -224q71 0 109 40l35 -45q-13 -13 -36 -25.5t-53.5 -18t-59.5 -5.5q-48 0 -87.5 15t-67.5 47.5t-43 84.5
t-15 122zM230 700q0 21 14 35t34 14q21 0 35 -14t14 -35q0 -20 -14 -34t-35 -14q-20 0 -34 14t-14 34z" />
    <glyph glyph-name="Ccaron" unicode="&#x10c;" horiz-adv-x="563" 
d="M65 346q0 174 73 269.5t208 95.5q49 0 97 -12.5t80 -38.5l-37 -48q-54 42 -147 42q-100 0 -156 -75.5t-56 -226.5q0 -150 55.5 -227.5t162.5 -77.5q98 0 140 39l34 -43q-25 -23 -72 -38t-112 -15q-51 0 -100 16.5t-86.5 57.5t-60.5 110t-23 172zM518 922l-189 -124
l-189 124l23 35l166 -98l167 98z" />
    <glyph glyph-name="ccaron" unicode="&#x10d;" horiz-adv-x="463" 
d="M58 261q0 54 11 106t41.5 96.5t76.5 64t94 19.5q43 0 82 -13t63 -37l-39 -47q-45 43 -111 43q-26 0 -53.5 -8.5t-50.5 -31.5t-38.5 -67t-15.5 -116q0 -224 158 -224q71 0 109 40l35 -45q-13 -13 -36 -25.5t-53.5 -18t-59.5 -5.5q-48 0 -87.5 15t-67.5 47.5t-43 84.5
t-15 122zM455 752l-189 -124l-189 124l23 35l166 -98l167 98z" />
    <glyph glyph-name="Dcaron" unicode="&#x10e;" horiz-adv-x="637" 
d="M98 0v701h175q154 0 226.5 -84t72.5 -262q0 -180 -74.5 -267.5t-227.5 -87.5h-172zM158 644v-587h115q91 0 141 32.5t73 95t23 162.5q0 80 -15.5 137.5t-46.5 92.5t-76 51t-105 16h-109zM488 922l-189 -124l-189 124l23 35l166 -98l167 98z" />
    <glyph glyph-name="dcaron" unicode="&#x10f;" horiz-adv-x="620" 
d="M404 530v229h58v-759h-42l-15 58h-4q-17 -29 -55.5 -49t-87.5 -20q-95 0 -147.5 64.5t-52.5 193.5q0 138 69.5 214.5t191.5 76.5q43 0 85 -8zM268 42q50 0 84.5 26.5t51.5 71.5v333q-16 4 -42 7.5t-43 3.5q-101 0 -151 -58.5t-50 -170.5q0 -72 18.5 -119t51.5 -70.5
t80 -23.5zM554 524l-17 31q30 13 48.5 33.5t18.5 43.5q0 17 -11 32.5t-47 35.5v5q0 23 15.5 38.5t38.5 15.5q19 0 35 -11.5t22.5 -31t6.5 -38.5q0 -41 -21.5 -76.5t-46.5 -53.5t-42 -24z" />
    <glyph glyph-name="Dcroat" unicode="&#x110;" horiz-adv-x="648" 
d="M104 0v342h-74v48h74v311h175q154 0 226.5 -84t72.5 -262q0 -180 -74.5 -267.5t-227.5 -87.5h-172zM336 342h-172v-285h115q91 0 141 32.5t73 95t23 162.5q0 80 -15.5 137.5t-46.5 92.5t-76 51t-105 16h-109v-254h172v-48z" />
    <glyph glyph-name="dcroat" unicode="&#x111;" horiz-adv-x="552" 
d="M523 623h-61v-623l-41 -4l-16 62h-4q-17 -29 -55.5 -49t-87.5 -20q-95 0 -147.5 64.5t-52.5 193.5q0 138 69.5 214.5t191.5 76.5q43 0 85 -8v93h-187v48h187v88h58v-88h61v-48zM268 42q26 0 58 11t55 44.5t23 87.5v288q-16 4 -42 7.5t-43 3.5q-101 0 -151 -58.5
t-50 -170.5q0 -72 18.5 -119t51.5 -70.5t80 -23.5z" />
    <glyph glyph-name="Emacron" unicode="&#x112;" horiz-adv-x="518" 
d="M473 0h-375v701h360v-56h-300v-262h265v-56h-265v-271h315v-56zM410 846h-303v46h303v-46z" />
    <glyph glyph-name="emacron" unicode="&#x113;" horiz-adv-x="535" 
d="M424 87l27 -48q-27 -19 -70 -32t-92 -13q-56 0 -99 15t-72.5 48t-44.5 87t-15 128q0 53 12.5 104.5t41 89t71.5 59.5t97 22q34 0 68 -10t61 -34t44 -65t17 -100q0 -39 -5 -92h-348q4 -67 22.5 -109.5t56 -65.5t101.5 -23q27 0 64 9.5t63 29.5zM273 493q-71 0 -111 -51.5
t-45 -141.5h293l1 36q0 157 -138 157zM419 676h-303v46h303v-46z" />
    <glyph glyph-name="Ebreve" unicode="&#x114;" horiz-adv-x="518" 
d="M473 0h-375v701h360v-56h-300v-262h265v-56h-265v-271h315v-56zM259 815q-53 0 -94 24.5t-65 65.5l40 26q17 -30 48 -49t71 -19t71 19t48 49l40 -26q-24 -41 -65 -65.5t-94 -24.5z" />
    <glyph glyph-name="ebreve" unicode="&#x115;" horiz-adv-x="535" 
d="M424 87l27 -48q-27 -19 -70 -32t-92 -13q-56 0 -99 15t-72.5 48t-44.5 87t-15 128q0 53 12.5 104.5t41 89t71.5 59.5t97 22q34 0 68 -10t61 -34t44 -65t17 -100q0 -39 -5 -92h-348q4 -67 22.5 -109.5t56 -65.5t101.5 -23q27 0 64 9.5t63 29.5zM273 493q-71 0 -111 -51.5
t-45 -141.5h293l1 36q0 157 -138 157zM267 645q-53 0 -94 24.5t-65 65.5l40 26q17 -30 48 -49t71 -19t71 19t48 49l40 -26q-24 -41 -65 -65.5t-94 -24.5z" />
    <glyph glyph-name="Edotaccent" unicode="&#x116;" horiz-adv-x="518" 
d="M473 0h-375v701h360v-56h-300v-262h265v-56h-265v-271h315v-56zM210 870q0 21 14 35t34 14q21 0 35 -14t14 -35q0 -20 -14 -34t-35 -14q-20 0 -34 14t-14 34z" />
    <glyph glyph-name="edotaccent" unicode="&#x117;" horiz-adv-x="535" 
d="M424 87l27 -48q-27 -19 -70 -32t-92 -13q-56 0 -99 15t-72.5 48t-44.5 87t-15 128q0 53 12.5 104.5t41 89t71.5 59.5t97 22q34 0 68 -10t61 -34t44 -65t17 -100q0 -39 -5 -92h-348q4 -67 22.5 -109.5t56 -65.5t101.5 -23q27 0 64 9.5t63 29.5zM273 493q-71 0 -111 -51.5
t-45 -141.5h293l1 36q0 157 -138 157zM219 700q0 21 14 35t34 14q21 0 35 -14t14 -35q0 -20 -14 -34t-35 -14q-20 0 -34 14t-14 34z" />
    <glyph glyph-name="Eogonek" unicode="&#x118;" horiz-adv-x="518" 
d="M495 -228q-25 -9 -70 -9q-58 0 -88.5 30t-30.5 76q0 73 86 131h-294v701h360v-56h-300v-262h265v-56h-265v-271h315v-56q-29 -15 -57.5 -37.5t-41 -46t-12.5 -42.5q0 -62 81 -62q5 0 19 1.5t25 6.5z" />
    <glyph glyph-name="eogonek" unicode="&#x119;" horiz-adv-x="535" 
d="M455 -200q-25 -9 -70 -9q-58 0 -88.5 30t-30.5 76q0 53 45 98l-22 -1q-56 0 -99 15t-72.5 48t-44.5 87t-15 128q0 53 12.5 104.5t41 89t71.5 59.5t97 22q34 0 68 -10t61 -34t44 -65t17 -100q0 -39 -5 -92h-348q4 -67 22.5 -109.5t56 -65.5t101.5 -23q27 0 64 9.5t63 29.5
l27 -48q-54 -38 -140 -44q34 33 96 64l26 -31q-29 -15 -57.5 -37.5t-41 -46t-12.5 -42.5q0 -62 81 -62q5 0 19 1.5t25 6.5zM273 493q-71 0 -111 -51.5t-45 -141.5h293l1 36q0 157 -138 157z" />
    <glyph glyph-name="Ecaron" unicode="&#x11a;" horiz-adv-x="518" 
d="M473 0h-375v701h360v-56h-300v-262h265v-56h-265v-271h315v-56zM448 922l-189 -124l-189 124l23 35l166 -98l167 98z" />
    <glyph glyph-name="ecaron" unicode="&#x11b;" horiz-adv-x="535" 
d="M424 87l27 -48q-27 -19 -70 -32t-92 -13q-56 0 -99 15t-72.5 48t-44.5 87t-15 128q0 53 12.5 104.5t41 89t71.5 59.5t97 22q34 0 68 -10t61 -34t44 -65t17 -100q0 -39 -5 -92h-348q4 -67 22.5 -109.5t56 -65.5t101.5 -23q27 0 64 9.5t63 29.5zM273 493q-71 0 -111 -51.5
t-45 -141.5h293l1 36q0 157 -138 157zM456 752l-189 -124l-189 124l23 35l166 -98l167 98z" />
    <glyph glyph-name="Gcircumflex" unicode="&#x11c;" horiz-adv-x="630" 
d="M358 711q125 0 185 -55l-39 -48q-51 46 -151 46q-110 0 -168 -77t-58 -224q0 -101 22.5 -167.5t70.5 -103t129 -36.5q41 0 78.5 8t60.5 24v277h60v-302q-73 -63 -211 -63q-133 0 -202.5 90.5t-69.5 268.5q0 91 22.5 160.5t62 114t93 66t115.5 21.5zM351 954l189 -124
l-22 -35l-167 98l-166 -98l-23 35z" />
    <glyph glyph-name="gcircumflex" unicode="&#x11d;" horiz-adv-x="548" 
d="M461 516v-528q0 -102 -57 -155.5t-158 -53.5q-31 0 -65 6.5t-60 19.5t-41 26l34 50q54 -48 144 -48q76 0 111 38.5t35 116.5v56h-4q-25 -22 -63.5 -34t-75.5 -12q-42 0 -79 14.5t-64.5 45.5t-43.5 80t-16 113q0 66 16 120.5t48.5 92.5t82.5 58.5t115 20.5q32 0 72 -6
t69 -21zM403 472q-17 7 -43.5 12t-52.5 5q-42 0 -77 -14t-60 -42.5t-38.5 -71.5t-13.5 -99q0 -101 40.5 -156t119.5 -55q35 0 70 16.5t55 43.5v361zM286 784l189 -124l-22 -35l-167 98l-166 -98l-23 35z" />
    <glyph glyph-name="Gbreve" unicode="&#x11e;" horiz-adv-x="630" 
d="M358 711q125 0 185 -55l-39 -48q-51 46 -151 46q-110 0 -168 -77t-58 -224q0 -101 22.5 -167.5t70.5 -103t129 -36.5q41 0 78.5 8t60.5 24v277h60v-302q-73 -63 -211 -63q-133 0 -202.5 90.5t-69.5 268.5q0 91 22.5 160.5t62 114t93 66t115.5 21.5zM337 815
q-53 0 -94 24.5t-65 65.5l40 26q17 -30 48 -49t71 -19t71 19t48 49l40 -26q-24 -41 -65 -65.5t-94 -24.5z" />
    <glyph glyph-name="gbreve" unicode="&#x11f;" horiz-adv-x="548" 
d="M461 516v-528q0 -102 -57 -155.5t-158 -53.5q-31 0 -65 6.5t-60 19.5t-41 26l34 50q54 -48 144 -48q76 0 111 38.5t35 116.5v56h-4q-25 -22 -63.5 -34t-75.5 -12q-42 0 -79 14.5t-64.5 45.5t-43.5 80t-16 113q0 66 16 120.5t48.5 92.5t82.5 58.5t115 20.5q32 0 72 -6
t69 -21zM403 472q-17 7 -43.5 12t-52.5 5q-42 0 -77 -14t-60 -42.5t-38.5 -71.5t-13.5 -99q0 -101 40.5 -156t119.5 -55q35 0 70 16.5t55 43.5v361zM284 645q-53 0 -94 24.5t-65 65.5l40 26q17 -30 48 -49t71 -19t71 19t48 49l40 -26q-24 -41 -65 -65.5t-94 -24.5z" />
    <glyph glyph-name="Gdotaccent" unicode="&#x120;" horiz-adv-x="630" 
d="M358 711q125 0 185 -55l-39 -48q-51 46 -151 46q-110 0 -168 -77t-58 -224q0 -101 22.5 -167.5t70.5 -103t129 -36.5q41 0 78.5 8t60.5 24v277h60v-302q-73 -63 -211 -63q-133 0 -202.5 90.5t-69.5 268.5q0 91 22.5 160.5t62 114t93 66t115.5 21.5zM299 870q0 21 14 35
t34 14q21 0 35 -14t14 -35q0 -20 -14 -34t-35 -14q-20 0 -34 14t-14 34z" />
    <glyph glyph-name="gdotaccent" unicode="&#x121;" horiz-adv-x="548" 
d="M461 516v-528q0 -102 -57 -155.5t-158 -53.5q-31 0 -65 6.5t-60 19.5t-41 26l34 50q54 -48 144 -48q76 0 111 38.5t35 116.5v56h-4q-25 -22 -63.5 -34t-75.5 -12q-42 0 -79 14.5t-64.5 45.5t-43.5 80t-16 113q0 66 16 120.5t48.5 92.5t82.5 58.5t115 20.5q32 0 72 -6
t69 -21zM403 472q-17 7 -43.5 12t-52.5 5q-42 0 -77 -14t-60 -42.5t-38.5 -71.5t-13.5 -99q0 -101 40.5 -156t119.5 -55q35 0 70 16.5t55 43.5v361zM255 696q0 21 14 35t34 14q21 0 35 -14t14 -35q0 -20 -14 -34t-35 -14q-20 0 -34 14t-14 34z" />
    <glyph glyph-name="Gcommaaccent" unicode="&#x122;" horiz-adv-x="630" 
d="M324 -321l-20 27q43 25 43 61q0 16 -10.5 30.5t-42.5 31.5v5q0 21 14 35t35 14q25 0 42 -19.5t17 -54.5q0 -21 -8.5 -46t-28 -48t-41.5 -36zM358 711q125 0 185 -55l-39 -48q-51 46 -151 46q-110 0 -168 -77t-58 -224q0 -101 22.5 -167.5t70.5 -103t129 -36.5
q41 0 78.5 8t60.5 24v277h60v-302q-73 -63 -211 -63q-133 0 -202.5 90.5t-69.5 268.5q0 91 22.5 160.5t62 114t93 66t115.5 21.5z" />
    <glyph glyph-name="gcommaaccent" unicode="&#x123;" horiz-adv-x="548" 
d="M461 516v-528q0 -102 -57 -155.5t-158 -53.5q-31 0 -65 6.5t-60 19.5t-41 26l34 50q54 -48 144 -48q76 0 111 38.5t35 116.5v56h-4q-25 -22 -63.5 -34t-75.5 -12q-42 0 -79 14.5t-64.5 45.5t-43.5 80t-16 113q0 66 16 120.5t48.5 92.5t82.5 58.5t115 20.5q32 0 72 -6
t69 -21zM403 472q-17 7 -43.5 12t-52.5 5q-42 0 -77 -14t-60 -42.5t-38.5 -71.5t-13.5 -99q0 -101 40.5 -156t119.5 -55q35 0 70 16.5t55 43.5v361zM360 867l17 -31q-30 -13 -48.5 -33.5t-18.5 -43.5q0 -17 11 -32.5t47 -35.5v-5q0 -23 -15.5 -38.5t-38.5 -15.5
q-19 0 -35 11.5t-22.5 31t-6.5 38.5q0 41 21.5 76.5t46.5 53.5t42 24z" />
    <glyph glyph-name="Hcircumflex" unicode="&#x124;" horiz-adv-x="678" 
d="M520 701h60v-701h-60v328h-362v-328h-60v701h60v-317h362v317zM339 954l189 -124l-22 -35l-167 98l-166 -98l-23 35z" />
    <glyph glyph-name="hcircumflex" unicode="&#x125;" 
d="M309 549q77 0 124 -47t47 -127v-375h-58v367q0 54 -30 91t-89 37q-44 0 -79.5 -19t-53.5 -43t-25 -43v-390h-58v759h58v-282h4q25 33 68.5 52.5t91.5 19.5zM115 938l189 -124l-22 -35l-167 98l-166 -98l-23 35z" />
    <glyph glyph-name="Hbar" unicode="&#x126;" horiz-adv-x="690" 
d="M526 701h60v-138h70v-48h-70v-515h-60v328h-362v-328h-60v515h-70v48h70v138h60v-138h362v138zM164 384h362v131h-362v-131z" />
    <glyph glyph-name="hbar" unicode="&#x127;" horiz-adv-x="567" 
d="M312 549q77 0 124 -47t47 -127v-375h-58v367q0 54 -30 91t-89 37q-44 0 -79.5 -19t-53.5 -43t-25 -43v-390h-58v623h-64v48h64v88h58v-88h184v-48h-184v-146h4q25 33 68.5 52.5t91.5 19.5z" />
    <glyph glyph-name="Itilde" unicode="&#x128;" horiz-adv-x="276" 
d="M108 0v701h60v-701h-60zM75 904q26 0 70 -16.5t62 -16.5t34.5 7t26.5 20l24 -40q-3 -6 -16 -16t-32 -15.5t-37 -5.5q-22 0 -67 17t-66 17q-40 0 -67 -24l-23 40q1 1 5 4t9 7t15 9t24 8.5t24 4t14 0.5z" />
    <glyph glyph-name="itilde" unicode="&#x129;" horiz-adv-x="287" 
d="M119 0v539h58v-539h-58zM81 734q26 0 70 -16.5t62 -16.5t34.5 7t26.5 20l24 -40q-3 -6 -16 -16t-32 -15.5t-37 -5.5q-22 0 -67 17t-66 17q-40 0 -67 -24l-23 40q1 1 5 4t9 7t15 9t24 8.5t24 4t14 0.5z" />
    <glyph glyph-name="imacron" unicode="&#x12b;" horiz-adv-x="287" 
d="M119 0v539h58v-539h-58zM295 676h-303v46h303v-46z" />
    <glyph glyph-name="Ibreve" unicode="&#x12c;" horiz-adv-x="276" 
d="M108 0v701h60v-701h-60zM138 815q-53 0 -94 24.5t-65 65.5l40 26q17 -30 48 -49t71 -19t71 19t48 49l40 -26q-24 -41 -65 -65.5t-94 -24.5z" />
    <glyph glyph-name="Iogonek" unicode="&#x12e;" horiz-adv-x="276" 
d="M190 -228q-25 -9 -70 -9q-58 0 -88.5 30t-30.5 76q0 23 11.5 50t37.5 51t58 43v688h60v-701q-29 -15 -57.5 -37.5t-41 -46t-12.5 -42.5q0 -62 81 -62q5 0 19 1.5t25 6.5z" />
    <glyph glyph-name="iogonek" unicode="&#x12f;" horiz-adv-x="287" 
d="M199 -228q-25 -9 -70 -9q-58 0 -88.5 30t-30.5 76q0 23 12 50.5t38.5 52t58.5 42.5v525h58v-539q-29 -15 -57.5 -37.5t-41 -46t-12.5 -42.5q0 -62 81 -62q5 0 19 1.5t25 6.5zM95 700q0 21 14 35t34 14q21 0 35 -14t14 -35q0 -20 -14 -34t-35 -14q-20 0 -34 14t-14 34z
" />
    <glyph glyph-name="Idotaccent" unicode="&#x130;" horiz-adv-x="276" 
d="M108 0v701h60v-701h-60zM90 870q0 21 14 35t34 14q21 0 35 -14t14 -35q0 -20 -14 -34t-35 -14q-20 0 -34 14t-14 34z" />
    <glyph glyph-name="dotlessi" unicode="&#x131;" horiz-adv-x="287" 
d="M119 0v539h58v-539h-58z" />
    <glyph glyph-name="IJ" unicode="&#x132;" horiz-adv-x="649" 
d="M108 0v701h60v-701h-60zM285 7l21 56q38 -20 95 -20q47 0 68.5 23t21.5 72v563h60v-563q0 -67 -39 -109t-119 -42q-29 0 -60 6t-48 14z" />
    <glyph glyph-name="ij" unicode="&#x133;" horiz-adv-x="531" 
d="M119 0v539h58v-539h-58zM95 700q0 21 14 35t34 14q21 0 35 -14t14 -35q0 -20 -14 -34t-35 -14q-20 0 -34 14t-14 34zM283 -222l-21 51q69 21 93.5 71.5t24.5 123.5v515h58v-517q0 -194 -155 -244zM356 700q0 21 14 35t34 14q21 0 35 -14t14 -35q0 -20 -14 -34t-35 -14
q-20 0 -34 14t-14 34z" />
    <glyph glyph-name="Jcircumflex" unicode="&#x134;" horiz-adv-x="373" 
d="M9 7l21 56q38 -20 95 -20q47 0 68.5 23t21.5 72v563h60v-563q0 -67 -39 -109t-119 -42q-29 0 -60 6t-48 14zM243 954l189 -124l-22 -35l-167 98l-166 -98l-23 35z" />
    <glyph glyph-name="jcircumflex" unicode="&#x135;" horiz-adv-x="244" 
d="M-4 -222l-21 51q69 21 93.5 71.5t24.5 123.5v515h58v-517q0 -194 -155 -244zM122 784l189 -124l-22 -35l-167 98l-166 -98l-23 35z" />
    <glyph glyph-name="Kcommaaccent" unicode="&#x136;" horiz-adv-x="559" 
d="M255 -321l-20 27q43 25 43 61q0 16 -10.5 30.5t-42.5 31.5v5q0 21 14 35t35 14q25 0 42 -19.5t17 -54.5q0 -21 -8.5 -46t-28 -48t-41.5 -36zM158 701v-701h-60v701h60zM190 349l257 352h71l-257 -353l280 -348h-78l-273 345v4z" />
    <glyph glyph-name="kcommaaccent" unicode="&#x137;" horiz-adv-x="482" 
d="M217 -321l-20 27q43 25 43 61q0 16 -10.5 30.5t-42.5 31.5v5q0 21 14 35t35 14q25 0 42 -19.5t17 -54.5q0 -21 -8.5 -46t-28 -48t-41.5 -36zM145 752v-752h-58v752h58zM163 274v4l206 261h77l-210 -259v-4l224 -276h-77z" />
    <glyph glyph-name="kgreenlandic" unicode="&#x138;" horiz-adv-x="482" 
d="M87 539h58v-539h-58v539zM169 254v4l200 281h73l-201 -277v-4l219 -258h-77z" />
    <glyph glyph-name="Lacute" unicode="&#x139;" horiz-adv-x="486" 
d="M98 701h60v-645h313v-56h-373v701zM344 913l-188 -117l-40 28l167 122z" />
    <glyph glyph-name="lacute" unicode="&#x13a;" horiz-adv-x="281" 
d="M94 759h58v-643q0 -38 13.5 -55t45.5 -17q28 0 52 13v-52q-27 -12 -67 -12q-25 0 -49.5 9.5t-38.5 35.5t-14 62v659zM235 903l-188 -117l-40 28l167 122z" />
    <glyph glyph-name="Lcommaaccent" unicode="&#x13b;" horiz-adv-x="486" 
d="M219 -321l-20 27q43 25 43 61q0 16 -10.5 30.5t-42.5 31.5v5q0 21 14 35t35 14q25 0 42 -19.5t17 -54.5q0 -21 -8.5 -46t-28 -48t-41.5 -36zM98 701h60v-645h313v-56h-373v701z" />
    <glyph glyph-name="lcommaaccent" unicode="&#x13c;" horiz-adv-x="281" 
d="M132 -321l-20 27q43 25 43 61q0 16 -10.5 30.5t-42.5 31.5v5q0 21 14 35t35 14q25 0 42 -19.5t17 -54.5q0 -21 -8.5 -46t-28 -48t-41.5 -36zM94 759h58v-643q0 -38 13.5 -55t45.5 -17q28 0 52 13v-52q-27 -12 -67 -12q-25 0 -49.5 9.5t-38.5 35.5t-14 62v659z" />
    <glyph glyph-name="Lcaron" unicode="&#x13d;" horiz-adv-x="486" 
d="M98 701h60v-645h313v-56h-373v701zM255 469l-17 31q30 13 48.5 33.5t18.5 43.5q0 17 -11 32.5t-47 35.5v5q0 23 15.5 38.5t38.5 15.5q19 0 35 -11.5t22.5 -31t6.5 -38.5q0 -41 -21.5 -76.5t-46.5 -53.5t-42 -24z" />
    <glyph glyph-name="lcaron" unicode="&#x13e;" horiz-adv-x="345" 
d="M94 759h58v-643q0 -38 13.5 -55t45.5 -17q28 0 52 13v-52q-27 -12 -67 -12q-25 0 -49.5 9.5t-38.5 35.5t-14 62v659zM261 521l-17 31q30 13 48.5 33.5t18.5 43.5q0 17 -11 32.5t-47 35.5v5q0 23 15.5 38.5t38.5 15.5q19 0 35 -11.5t22.5 -31t6.5 -38.5q0 -41 -21.5 -76.5
t-46.5 -53.5t-42 -24z" />
    <glyph glyph-name="Ldot" unicode="&#x13f;" horiz-adv-x="486" 
d="M98 701h60v-645h313v-56h-373v701zM287 373q0 22 15 37.5t36 15.5q22 0 37.5 -15.5t15.5 -37.5q0 -21 -15.5 -36t-37.5 -15q-21 0 -36 15t-15 36z" />
    <glyph glyph-name="ldot" unicode="&#x140;" horiz-adv-x="495" 
d="M94 759h58v-643q0 -38 13.5 -55t45.5 -17q28 0 52 13v-52q-27 -12 -67 -12q-25 0 -49.5 9.5t-38.5 35.5t-14 62v659zM264 403q0 22 15 37.5t36 15.5q22 0 37.5 -15.5t15.5 -37.5q0 -21 -15.5 -36t-37.5 -15q-21 0 -36 15t-15 36z" />
    <glyph glyph-name="Lslash" unicode="&#x141;" horiz-adv-x="492" 
d="M104 701h60v-283l134 108v-56l-134 -108v-306h313v-56h-373v314l-58 -46v56l58 46v331z" />
    <glyph glyph-name="lslash" unicode="&#x142;" horiz-adv-x="293" 
d="M100 759h58v-334l101 82v-56l-101 -82v-253q0 -38 13.5 -55t45.5 -17q28 0 52 13v-52q-27 -12 -67 -12q-25 0 -49.5 9.5t-38.5 35.5t-14 62v222l-53 -43v56l53 43v381z" />
    <glyph glyph-name="Nacute" unicode="&#x143;" horiz-adv-x="690" 
d="M163 631h-8v-631h-57v701h93l261 -489l76 -142h8v631h56v-701h-92l-260 487zM459 913l-188 -117l-40 28l167 122z" />
    <glyph glyph-name="nacute" unicode="&#x144;" 
d="M480 371v-371h-58v357q0 67 -33 102.5t-94 35.5q-53 0 -93.5 -30.5t-56.5 -74.5v-390h-58v539h43l13 -59h4q18 25 60.5 47t95.5 22q82 0 128.5 -45t48.5 -133zM396 743l-188 -117l-40 28l167 122z" />
    <glyph glyph-name="Ncommaaccent" unicode="&#x145;" horiz-adv-x="690" 
d="M163 631h-8v-631h-57v701h93l261 -489l76 -142h8v631h56v-701h-92l-260 487zM321 -321l-20 27q43 25 43 61q0 16 -10.5 30.5t-42.5 31.5v5q0 21 14 35t35 14q25 0 42 -19.5t17 -54.5q0 -21 -8.5 -46t-28 -48t-41.5 -36z" />
    <glyph glyph-name="ncommaaccent" unicode="&#x146;" 
d="M258 -321l-20 27q43 25 43 61q0 16 -10.5 30.5t-42.5 31.5v5q0 21 14 35t35 14q25 0 42 -19.5t17 -54.5q0 -21 -8.5 -46t-28 -48t-41.5 -36zM480 371v-371h-58v357q0 67 -33 102.5t-94 35.5q-53 0 -93.5 -30.5t-56.5 -74.5v-390h-58v539h43l13 -59h4q18 25 60.5 47
t95.5 22q82 0 128.5 -45t48.5 -133z" />
    <glyph glyph-name="Ncaron" unicode="&#x147;" horiz-adv-x="690" 
d="M163 631h-8v-631h-57v701h93l261 -489l76 -142h8v631h56v-701h-92l-260 487zM534 922l-189 -124l-189 124l23 35l166 -98l167 98z" />
    <glyph glyph-name="ncaron" unicode="&#x148;" 
d="M480 371v-371h-58v357q0 67 -33 102.5t-94 35.5q-53 0 -93.5 -30.5t-56.5 -74.5v-390h-58v539h43l13 -59h4q18 25 60.5 47t95.5 22q82 0 128.5 -45t48.5 -133zM471 752l-189 -124l-189 124l23 35l166 -98l167 98z" />
    <glyph glyph-name="napostrophe" unicode="&#x149;" horiz-adv-x="644" 
d="M560 371v-371h-58v357q0 67 -33 102.5t-94 35.5q-53 0 -93.5 -30.5t-56.5 -74.5v-390h-58v539h43l13 -59h4q18 25 60.5 47t95.5 22q82 0 128.5 -45t48.5 -133zM13 488l-17 31q30 13 48.5 33.5t18.5 43.5q0 17 -11 32.5t-47 35.5v5q0 23 15.5 38.5t38.5 15.5
q19 0 35 -11.5t22.5 -31t6.5 -38.5q0 -41 -21.5 -76.5t-46.5 -53.5t-42 -24z" />
    <glyph glyph-name="Eng" unicode="&#x14a;" horiz-adv-x="690" 
d="M163 631h-8v-631h-57v701h93l261 -489l76 -142h8v631h56v-679q0 -194 -155 -244l-21 51q57 18 86 59t33 112h-35l-260 487z" />
    <glyph glyph-name="eng" unicode="&#x14b;" horiz-adv-x="567" 
d="M422 357q0 67 -32.5 102.5t-93.5 35.5q-25 0 -56.5 -10.5t-57.5 -37t-37 -57.5v-390h-58v539h43l13 -59h4q18 25 60.5 47t95.5 22q82 0 128.5 -45t48.5 -133v-349q0 -194 -155 -244l-21 51q69 21 93.5 71.5t24.5 123.5v333z" />
    <glyph glyph-name="Omacron" unicode="&#x14c;" horiz-adv-x="664" 
d="M127 354q0 -104 22 -171t66.5 -101.5t117.5 -34.5q48 0 85.5 15.5t64 50t40.5 93t14 141.5q0 104 -22 171t-66 101.5t-118 34.5q-48 0 -85.5 -15.5t-64 -50t-40.5 -93t-14 -141.5zM599 354q0 -364 -271 -364q-62 0 -110.5 20t-82.5 63t-52 112t-18 162q0 364 271 364
q62 0 110.5 -20t82.5 -63t52 -112t18 -162zM483 846h-303v46h303v-46z" />
    <glyph glyph-name="omacron" unicode="&#x14d;" horiz-adv-x="550" 
d="M118 274q0 -116 38.5 -172t121.5 -56q82 0 118 54t36 168q0 115 -38.5 171t-121.5 56q-82 0 -118 -53.5t-36 -167.5zM272 -8q-214 0 -214 276q0 63 12.5 115t39 89t69 57t99.5 20q214 0 214 -275q0 -80 -17.5 -134.5t-48 -87.5t-71 -46.5t-83.5 -13.5zM426 676h-303v46
h303v-46z" />
    <glyph glyph-name="Obreve" unicode="&#x14e;" horiz-adv-x="664" 
d="M127 354q0 -104 22 -171t66.5 -101.5t117.5 -34.5q48 0 85.5 15.5t64 50t40.5 93t14 141.5q0 104 -22 171t-66 101.5t-118 34.5q-48 0 -85.5 -15.5t-64 -50t-40.5 -93t-14 -141.5zM599 354q0 -364 -271 -364q-62 0 -110.5 20t-82.5 63t-52 112t-18 162q0 364 271 364
q62 0 110.5 -20t82.5 -63t52 -112t18 -162zM332 815q-53 0 -94 24.5t-65 65.5l40 26q17 -30 48 -49t71 -19t71 19t48 49l40 -26q-24 -41 -65 -65.5t-94 -24.5z" />
    <glyph glyph-name="obreve" unicode="&#x14f;" horiz-adv-x="550" 
d="M118 274q0 -116 38.5 -172t121.5 -56q82 0 118 54t36 168q0 115 -38.5 171t-121.5 56q-82 0 -118 -53.5t-36 -167.5zM272 -8q-214 0 -214 276q0 63 12.5 115t39 89t69 57t99.5 20q214 0 214 -275q0 -80 -17.5 -134.5t-48 -87.5t-71 -46.5t-83.5 -13.5zM275 645
q-53 0 -94 24.5t-65 65.5l40 26q17 -30 48 -49t71 -19t71 19t48 49l40 -26q-24 -41 -65 -65.5t-94 -24.5z" />
    <glyph glyph-name="Ohungarumlaut" unicode="&#x150;" horiz-adv-x="664" 
d="M127 354q0 -104 22 -171t66.5 -101.5t117.5 -34.5q48 0 85.5 15.5t64 50t40.5 93t14 141.5q0 104 -22 171t-66 101.5t-118 34.5q-48 0 -85.5 -15.5t-64 -50t-40.5 -93t-14 -141.5zM599 354q0 -364 -271 -364q-62 0 -110.5 20t-82.5 63t-52 112t-18 162q0 364 271 364
q62 0 110.5 -20t82.5 -63t52 -112t18 -162zM546 913l-188 -117l-40 28l167 122zM345 913l-188 -117l-40 28l167 122z" />
    <glyph glyph-name="ohungarumlaut" unicode="&#x151;" horiz-adv-x="550" 
d="M118 274q0 -116 38.5 -172t121.5 -56q82 0 118 54t36 168q0 115 -38.5 171t-121.5 56q-82 0 -118 -53.5t-36 -167.5zM272 -8q-214 0 -214 276q0 63 12.5 115t39 89t69 57t99.5 20q214 0 214 -275q0 -80 -17.5 -134.5t-48 -87.5t-71 -46.5t-83.5 -13.5zM489 743l-188 -117
l-40 28l167 122zM288 743l-188 -117l-40 28l167 122z" />
    <glyph glyph-name="OE" unicode="&#x152;" horiz-adv-x="956" 
d="M911 0h-372v95h-4q-62 -105 -207 -105q-62 0 -110.5 20t-82.5 63t-52 112t-18 162q0 364 271 364q140 0 199 -100h4v90h357v-56h-300v-262h265v-56h-265v-271h315v-56zM127 354q0 -104 22 -171t66.5 -101.5t117.5 -34.5q74 0 118.5 33.5t66.5 98.5t22 168
q0 104 -22.5 171t-67.5 101.5t-119 34.5q-48 0 -85.5 -15.5t-64 -50t-40.5 -93t-14 -141.5z" />
    <glyph glyph-name="oe" unicode="&#x153;" horiz-adv-x="909" 
d="M464 105h-4q-24 -53 -68.5 -83t-119.5 -30q-214 0 -214 276q0 63 12.5 115t39 89t69 57t99.5 20q72 0 118.5 -31t66.5 -84h4q26 55 76.5 84t110.5 29q91 0 140.5 -56.5t49.5 -153.5q0 -48 -4 -91h-350v-4q7 -104 52.5 -149t131.5 -45q83 0 135 47l28 -50
q-25 -22 -69.5 -36.5t-101.5 -14.5q-155 0 -202 111zM118 274q0 -116 38.5 -172t121.5 -56t119.5 54.5t36.5 175.5q0 219 -162 219q-82 0 -118 -53.5t-36 -167.5zM645 493q-70 0 -110 -49t-45 -139v-5h294l1 35q0 76 -35 117t-105 41z" />
    <glyph glyph-name="Racute" unicode="&#x154;" horiz-adv-x="590" 
d="M98 701h162q111 0 171 -47.5t60 -147.5q0 -51 -19.5 -91t-56 -67t-85.5 -32v-4q43 -18 83 -86l135 -226h-72l-130 223q-23 39 -52 57.5t-69 18.5h-67v-299h-60v701zM158 645v-291h99q59 0 96.5 17t56.5 48.5t19 79.5q0 78 -44.5 112t-134.5 34h-92zM409 913l-188 -117
l-40 28l167 122z" />
    <glyph glyph-name="racute" unicode="&#x155;" horiz-adv-x="345" 
d="M339 541v-62q-11 3 -30 6t-30 3q-44 0 -80.5 -19.5t-53.5 -57.5v-411h-58v539h43l13 -55h4q19 27 55.5 45t79.5 18q33 0 57 -6zM287 743l-188 -117l-40 28l167 122z" />
    <glyph glyph-name="Rcommaaccent" unicode="&#x156;" horiz-adv-x="590" 
d="M271 -321l-20 27q43 25 43 61q0 16 -10.5 30.5t-42.5 31.5v5q0 21 14 35t35 14q25 0 42 -19.5t17 -54.5q0 -21 -8.5 -46t-28 -48t-41.5 -36zM98 701h162q111 0 171 -47.5t60 -147.5q0 -51 -19.5 -91t-56 -67t-85.5 -32v-4q43 -18 83 -86l135 -226h-72l-130 223
q-23 39 -52 57.5t-69 18.5h-67v-299h-60v701zM158 645v-291h99q59 0 96.5 17t56.5 48.5t19 79.5q0 78 -44.5 112t-134.5 34h-92z" />
    <glyph glyph-name="rcommaaccent" unicode="&#x157;" horiz-adv-x="345" 
d="M91 -321l-20 27q43 25 43 61q0 16 -10.5 30.5t-42.5 31.5v5q0 21 14 35t35 14q25 0 42 -19.5t17 -54.5q0 -21 -8.5 -46t-28 -48t-41.5 -36zM339 541v-62q-11 3 -30 6t-30 3q-44 0 -80.5 -19.5t-53.5 -57.5v-411h-58v539h43l13 -55h4q19 27 55.5 45t79.5 18q33 0 57 -6z
" />
    <glyph glyph-name="Rcaron" unicode="&#x158;" horiz-adv-x="590" 
d="M98 701h162q111 0 171 -47.5t60 -147.5q0 -51 -19.5 -91t-56 -67t-85.5 -32v-4q43 -18 83 -86l135 -226h-72l-130 223q-23 39 -52 57.5t-69 18.5h-67v-299h-60v701zM158 645v-291h99q59 0 96.5 17t56.5 48.5t19 79.5q0 78 -44.5 112t-134.5 34h-92zM484 922l-189 -124
l-189 124l23 35l166 -98l167 98z" />
    <glyph glyph-name="rcaron" unicode="&#x159;" horiz-adv-x="345" 
d="M339 541v-62q-11 3 -30 6t-30 3q-44 0 -80.5 -19.5t-53.5 -57.5v-411h-58v539h43l13 -55h4q19 27 55.5 45t79.5 18q33 0 57 -6zM362 752l-189 -124l-189 124l23 35l166 -98l167 98z" />
    <glyph glyph-name="Sacute" unicode="&#x15a;" horiz-adv-x="522" 
d="M249 47q75 0 118 36.5t43 93.5q0 30 -14 54t-41 43.5t-99.5 53t-103.5 55.5t-47 44t-24 47t-8 54q0 38 15.5 71.5t43.5 58.5t67 39t83 14q50 0 95 -13.5t77 -38.5l-37 -49q-59 44 -138 44q-67 0 -106 -34t-39 -89q0 -23 9.5 -45.5t35 -46t114 -64.5t119.5 -68.5t45 -58
t14 -68.5q0 -29 -10 -61t-39.5 -64t-77 -48.5t-99.5 -16.5q-68 0 -122 19.5t-91 50.5l37 48q78 -61 180 -61zM375 913l-188 -117l-40 28l167 122z" />
    <glyph glyph-name="sacute" unicode="&#x15b;" horiz-adv-x="468" 
d="M346 141q0 29 -20 52.5t-92.5 50t-101.5 45t-46 46t-17 67.5q0 28 12 54.5t35 46.5t57 32t76 12t82.5 -14t64.5 -38l-38 -44q-19 20 -50 31t-61 11q-59 0 -89.5 -26t-30.5 -64q0 -23 11 -40t33 -31t81.5 -36t92 -43t46 -50.5t13.5 -61.5q0 -28 -12 -55t-36 -48.5
t-59.5 -34t-78.5 -12.5q-57 0 -105.5 18.5t-77.5 46.5l38 46q27 -27 65 -42t83 -15q28 0 58 9.5t48.5 33.5t18.5 53zM348 743l-188 -117l-40 28l167 122z" />
    <glyph glyph-name="Scircumflex" unicode="&#x15c;" horiz-adv-x="522" 
d="M249 47q75 0 118 36.5t43 93.5q0 30 -14 54t-41 43.5t-99.5 53t-103.5 55.5t-47 44t-24 47t-8 54q0 38 15.5 71.5t43.5 58.5t67 39t83 14q50 0 95 -13.5t77 -38.5l-37 -49q-59 44 -138 44q-67 0 -106 -34t-39 -89q0 -23 9.5 -45.5t35 -46t114 -64.5t119.5 -68.5t45 -58
t14 -68.5q0 -29 -10 -61t-39.5 -64t-77 -48.5t-99.5 -16.5q-68 0 -122 19.5t-91 50.5l37 48q78 -61 180 -61zM261 954l189 -124l-22 -35l-167 98l-166 -98l-23 35z" />
    <glyph glyph-name="scircumflex" unicode="&#x15d;" horiz-adv-x="468" 
d="M346 141q0 29 -20 52.5t-92.5 50t-101.5 45t-46 46t-17 67.5q0 28 12 54.5t35 46.5t57 32t76 12t82.5 -14t64.5 -38l-38 -44q-19 20 -50 31t-61 11q-59 0 -89.5 -26t-30.5 -64q0 -23 11 -40t33 -31t81.5 -36t92 -43t46 -50.5t13.5 -61.5q0 -28 -12 -55t-36 -48.5
t-59.5 -34t-78.5 -12.5q-57 0 -105.5 18.5t-77.5 46.5l38 46q27 -27 65 -42t83 -15q28 0 58 9.5t48.5 33.5t18.5 53zM234 784l189 -124l-22 -35l-167 98l-166 -98l-23 35z" />
    <glyph glyph-name="Scedilla" unicode="&#x15e;" horiz-adv-x="522" 
d="M249 47q75 0 118 36.5t43 93.5q0 30 -14 54t-41 43.5t-99.5 53t-103.5 55.5t-47 44t-24 47t-8 54q0 38 15.5 71.5t43.5 58.5t67 39t83 14q50 0 95 -13.5t77 -38.5l-37 -49q-59 44 -138 44q-67 0 -106 -34t-39 -89q0 -23 9.5 -45.5t35 -46t114 -64.5t119.5 -68.5t45 -58
t14 -68.5q0 -29 -10 -61t-39.5 -64t-77 -48.5t-99.5 -16.5q-68 0 -122 19.5t-91 50.5l37 48q78 -61 180 -61zM316 -114q0 -45 -25 -73.5t-63 -42.5l-23 34q24 12 39.5 30.5t15.5 46.5q0 32 -23 64v4h61q8 -11 13 -29t5 -34z" />
    <glyph glyph-name="scedilla" unicode="&#x15f;" horiz-adv-x="468" 
d="M346 141q0 29 -20 52.5t-92.5 50t-101.5 45t-46 46t-17 67.5q0 28 12 54.5t35 46.5t57 32t76 12t82.5 -14t64.5 -38l-38 -44q-19 20 -50 31t-61 11q-59 0 -89.5 -26t-30.5 -64q0 -23 11 -40t33 -31t81.5 -36t92 -43t46 -50.5t13.5 -61.5q0 -28 -12 -55t-36 -48.5
t-59.5 -34t-78.5 -12.5q-57 0 -105.5 18.5t-77.5 46.5l38 46q27 -27 65 -42t83 -15q28 0 58 9.5t48.5 33.5t18.5 53zM290 -114q0 -45 -25 -73.5t-63 -42.5l-23 34q24 12 39.5 30.5t15.5 46.5q0 32 -23 64v4h61q8 -11 13 -29t5 -34z" />
    <glyph glyph-name="Scaron" unicode="&#x160;" horiz-adv-x="522" 
d="M249 47q75 0 118 36.5t43 93.5q0 30 -14 54t-41 43.5t-99.5 53t-103.5 55.5t-47 44t-24 47t-8 54q0 38 15.5 71.5t43.5 58.5t67 39t83 14q50 0 95 -13.5t77 -38.5l-37 -49q-59 44 -138 44q-67 0 -106 -34t-39 -89q0 -23 9.5 -45.5t35 -46t114 -64.5t119.5 -68.5t45 -58
t14 -68.5q0 -29 -10 -61t-39.5 -64t-77 -48.5t-99.5 -16.5q-68 0 -122 19.5t-91 50.5l37 48q78 -61 180 -61zM450 922l-189 -124l-189 124l23 35l166 -98l167 98z" />
    <glyph glyph-name="scaron" unicode="&#x161;" horiz-adv-x="468" 
d="M346 141q0 29 -20 52.5t-92.5 50t-101.5 45t-46 46t-17 67.5q0 28 12 54.5t35 46.5t57 32t76 12t82.5 -14t64.5 -38l-38 -44q-19 20 -50 31t-61 11q-59 0 -89.5 -26t-30.5 -64q0 -23 11 -40t33 -31t81.5 -36t92 -43t46 -50.5t13.5 -61.5q0 -28 -12 -55t-36 -48.5
t-59.5 -34t-78.5 -12.5q-57 0 -105.5 18.5t-77.5 46.5l38 46q27 -27 65 -42t83 -15q28 0 58 9.5t48.5 33.5t18.5 53zM423 752l-189 -124l-189 124l23 35l166 -98l167 98z" />
    <glyph glyph-name="Tcommaaccent" unicode="&#x162;" horiz-adv-x="469" 
d="M210 -321l-20 27q43 25 43 61q0 16 -10.5 30.5t-42.5 31.5v5q0 21 14 35t35 14q25 0 42 -19.5t17 -54.5q0 -21 -8.5 -46t-28 -48t-41.5 -36zM205 0v645h-191v56h441v-56h-190v-645h-60z" />
    <glyph glyph-name="tcommaaccent" unicode="&#x163;" horiz-adv-x="375" 
d="M163 -321l-20 27q43 25 43 61q0 16 -10.5 30.5t-42.5 31.5v5q0 21 14 35t35 14q25 0 42 -19.5t17 -54.5q0 -21 -8.5 -46t-28 -48t-41.5 -36zM237 -5q-132 0 -132 140v354h-83v38l83 12l16 143h42v-143h152v-50h-152v-347q0 -48 22.5 -71t61.5 -23q54 0 85 18l17 -49
q-42 -22 -112 -22z" />
    <glyph glyph-name="Tcaron" unicode="&#x164;" horiz-adv-x="469" 
d="M205 0v645h-191v56h441v-56h-190v-645h-60zM424 922l-189 -124l-189 124l23 35l166 -98l167 98z" />
    <glyph glyph-name="tcaron" unicode="&#x165;" horiz-adv-x="538" 
d="M237 -5q-132 0 -132 140v354h-83v38l83 12l16 143h42v-143h152v-50h-152v-347q0 -48 22.5 -71t61.5 -23q54 0 85 18l17 -49q-42 -22 -112 -22zM254 600l-17 31q30 13 48.5 33.5t18.5 43.5q0 17 -11 32.5t-47 35.5v5q0 23 15.5 38.5t38.5 15.5q19 0 35 -11.5t22.5 -31
t6.5 -38.5q0 -41 -21.5 -76.5t-46.5 -53.5t-42 -24z" />
    <glyph glyph-name="Tbar" unicode="&#x166;" horiz-adv-x="473" 
d="M207 0v332h-122v46h122v267h-191v56h441v-56h-190v-267h121v-46h-121v-332h-60z" />
    <glyph glyph-name="tbar" unicode="&#x167;" horiz-adv-x="386" 
d="M110 359v130h-83v38l83 12l16 143h42v-143h152v-50h-152v-130h152v-50h-152v-167q0 -48 22.5 -71t61.5 -23q54 0 85 18l17 -49q-42 -22 -112 -22q-132 0 -132 140v174h-83v38z" />
    <glyph glyph-name="Utilde" unicode="&#x168;" horiz-adv-x="675" 
d="M340 47q180 0 180 182v472h60v-466q0 -117 -64.5 -181t-181.5 -64q-114 0 -176.5 62.5t-62.5 176.5v472h60v-465q0 -95 49.5 -142t135.5 -47zM274 904q26 0 70 -16.5t62 -16.5t34.5 7t26.5 20l24 -40q-3 -6 -16 -16t-32 -15.5t-37 -5.5q-22 0 -67 17t-66 17
q-40 0 -67 -24l-23 40q1 1 5 4t9 7t15 9t24 8.5t24 4t14 0.5z" />
    <glyph glyph-name="utilde" unicode="&#x169;" 
d="M84 168v371h58v-354q0 -72 32 -107t98 -35q64 0 105.5 37t41.5 111v348h58v-539h-43l-13 58h-4q-9 -14 -33 -31.5t-57 -27.5t-67 -10q-83 0 -128.5 45t-47.5 134zM219 734q26 0 70 -16.5t62 -16.5t34.5 7t26.5 20l24 -40q-3 -6 -16 -16t-32 -15.5t-37 -5.5q-22 0 -67 17
t-66 17q-40 0 -67 -24l-23 40q1 1 5 4t9 7t15 9t24 8.5t24 4t14 0.5z" />
    <glyph glyph-name="Umacron" unicode="&#x16a;" horiz-adv-x="675" 
d="M340 47q180 0 180 182v472h60v-466q0 -117 -64.5 -181t-181.5 -64q-114 0 -176.5 62.5t-62.5 176.5v472h60v-465q0 -95 49.5 -142t135.5 -47zM489 846h-303v46h303v-46z" />
    <glyph glyph-name="umacron" unicode="&#x16b;" 
d="M84 168v371h58v-354q0 -72 32 -107t98 -35q64 0 105.5 37t41.5 111v348h58v-539h-43l-13 58h-4q-9 -14 -33 -31.5t-57 -27.5t-67 -10q-83 0 -128.5 45t-47.5 134zM433 676h-303v46h303v-46z" />
    <glyph glyph-name="Ubreve" unicode="&#x16c;" horiz-adv-x="675" 
d="M340 47q180 0 180 182v472h60v-466q0 -117 -64.5 -181t-181.5 -64q-114 0 -176.5 62.5t-62.5 176.5v472h60v-465q0 -95 49.5 -142t135.5 -47zM337 815q-53 0 -94 24.5t-65 65.5l40 26q17 -30 48 -49t71 -19t71 19t48 49l40 -26q-24 -41 -65 -65.5t-94 -24.5z" />
    <glyph glyph-name="ubreve" unicode="&#x16d;" 
d="M84 168v371h58v-354q0 -72 32 -107t98 -35q64 0 105.5 37t41.5 111v348h58v-539h-43l-13 58h-4q-9 -14 -33 -31.5t-57 -27.5t-67 -10q-83 0 -128.5 45t-47.5 134zM282 645q-53 0 -94 24.5t-65 65.5l40 26q17 -30 48 -49t71 -19t71 19t48 49l40 -26q-24 -41 -65 -65.5
t-94 -24.5z" />
    <glyph glyph-name="Uring" unicode="&#x16e;" horiz-adv-x="675" 
d="M340 47q180 0 180 182v472h60v-466q0 -117 -64.5 -181t-181.5 -64q-114 0 -176.5 62.5t-62.5 176.5v472h60v-465q0 -95 49.5 -142t135.5 -47zM234 883q0 21 10 46t36 41.5t59 16.5q45 0 73 -26.5t28 -71.5q0 -21 -10 -46t-36 -41.5t-59 -16.5q-45 0 -73 26.5t-28 71.5z
M397 885q0 28 -17 45.5t-45 17.5q-27 0 -43 -16.5t-16 -44.5t17.5 -45.5t45.5 -17.5q27 0 42.5 16.5t15.5 44.5z" />
    <glyph glyph-name="uring" unicode="&#x16f;" 
d="M84 168v371h58v-354q0 -72 32 -107t98 -35q64 0 105.5 37t41.5 111v348h58v-539h-43l-13 58h-4q-9 -14 -33 -31.5t-57 -27.5t-67 -10q-83 0 -128.5 45t-47.5 134zM179 713q0 21 10 46t36 41.5t59 16.5q45 0 73 -26.5t28 -71.5q0 -21 -10 -46t-36 -41.5t-59 -16.5
q-45 0 -73 26.5t-28 71.5zM342 715q0 28 -17 45.5t-45 17.5q-27 0 -43 -16.5t-16 -44.5t17.5 -45.5t45.5 -17.5q27 0 42.5 16.5t15.5 44.5z" />
    <glyph glyph-name="Uhungarumlaut" unicode="&#x170;" horiz-adv-x="675" 
d="M340 47q180 0 180 182v472h60v-466q0 -117 -64.5 -181t-181.5 -64q-114 0 -176.5 62.5t-62.5 176.5v472h60v-465q0 -95 49.5 -142t135.5 -47zM552 913l-188 -117l-40 28l167 122zM351 913l-188 -117l-40 28l167 122z" />
    <glyph glyph-name="uhungarumlaut" unicode="&#x171;" 
d="M84 168v371h58v-354q0 -72 32 -107t98 -35q64 0 105.5 37t41.5 111v348h58v-539h-43l-13 58h-4q-9 -14 -33 -31.5t-57 -27.5t-67 -10q-83 0 -128.5 45t-47.5 134zM496 743l-188 -117l-40 28l167 122zM295 743l-188 -117l-40 28l167 122z" />
    <glyph glyph-name="Uogonek" unicode="&#x172;" horiz-adv-x="675" 
d="M470 -218q-25 -9 -70 -9q-58 0 -88.5 30t-30.5 76q0 61 59 111h-6q-114 0 -176.5 62.5t-62.5 176.5v472h60v-465q0 -95 49.5 -142t135.5 -47q180 0 180 182v472h60v-466q0 -85 -34.5 -142.5t-99.5 -83.5q-29 -15 -56.5 -37.5t-40 -46t-12.5 -41.5q0 -62 81 -62
q5 0 19 1.5t25 6.5z" />
    <glyph glyph-name="uogonek" unicode="&#x173;" 
d="M499 -228q-25 -9 -70 -9q-58 0 -88.5 30t-30.5 76q0 27 14 55t42.5 52.5t62.5 43.5l-8 38h-4q-9 -14 -33 -31.5t-57 -27.5t-67 -10q-83 0 -128.5 45t-47.5 134v371h58v-354q0 -72 32 -107t98 -35q64 0 105.5 37t41.5 111v348h58v-539q-29 -15 -57.5 -37.5t-41 -46
t-12.5 -42.5q0 -62 81 -62q5 0 19 1.5t25 6.5z" />
    <glyph glyph-name="Wcircumflex" unicode="&#x174;" horiz-adv-x="916" 
d="M240 51h4l45 176l120 474h98l123 -480l44 -170h4l44 169l124 481h60l-181 -701h-98l-124 485l-44 170h-4l-43 -171l-123 -484h-98l-181 701h61l123 -474zM458 954l189 -124l-22 -35l-167 98l-166 -98l-23 35z" />
    <glyph glyph-name="wcircumflex" unicode="&#x175;" horiz-adv-x="737" 
d="M371 487h-4l-123 -487h-86l-144 539h61l81 -311l44 -175h4l36 149l85 337h89l84 -338l36 -148h4l45 175l81 311h59l-145 -539h-86zM368 784l189 -124l-22 -35l-167 98l-166 -98l-23 35z" />
    <glyph glyph-name="Ycircumflex" unicode="&#x176;" horiz-adv-x="518" 
d="M454 701h66l-231 -441v-260h-60v260l-231 441h70l191 -377h4zM259 954l189 -124l-22 -35l-167 98l-166 -98l-23 35z" />
    <glyph glyph-name="ycircumflex" unicode="&#x177;" horiz-adv-x="486" 
d="M23 -200l9 55q22 -8 49 -8q52 0 84 30.5t54 98.5l-193 563h62l95 -288l64 -198h4q15 61 59 198l93 288h60l-192 -580q-31 -93 -79 -130t-115 -37q-28 0 -54 8zM243 784l189 -124l-22 -35l-167 98l-166 -98l-23 35z" />
    <glyph glyph-name="Ydieresis" unicode="&#x178;" horiz-adv-x="518" 
d="M520 701h-66l-191 -377h-4l-191 377h-70l231 -441v-260h60v260zM130 878q0 18 11.5 29.5t29.5 11.5q17 0 29 -11.5t12 -29.5q0 -17 -12 -29t-29 -12q-18 0 -29.5 12t-11.5 29zM306 878q0 18 12 29.5t29 11.5q18 0 29.5 -11.5t11.5 -29.5q0 -17 -11.5 -29t-29.5 -12
q-17 0 -29 12t-12 29z" />
    <glyph glyph-name="Zacute" unicode="&#x179;" horiz-adv-x="505" 
d="M101 61v-4h367v-57h-428l-11 59l366 581v4h-334v57h393l11 -59zM366 913l-188 -117l-40 28l167 122z" />
    <glyph glyph-name="zacute" unicode="&#x17a;" horiz-adv-x="434" 
d="M96 58v-4h289v-54h-340l-10 68l281 413v4h-258v54h305l15 -68zM331 743l-188 -117l-40 28l167 122z" />
    <glyph glyph-name="Zdotaccent" unicode="&#x17b;" horiz-adv-x="505" 
d="M101 61v-4h367v-57h-428l-11 59l366 581v4h-334v57h393l11 -59zM204 870q0 21 14 35t34 14q21 0 35 -14t14 -35q0 -20 -14 -34t-35 -14q-20 0 -34 14t-14 34z" />
    <glyph glyph-name="zdotaccent" unicode="&#x17c;" horiz-adv-x="434" 
d="M96 58v-4h289v-54h-340l-10 68l281 413v4h-258v54h305l15 -68zM169 700q0 21 14 35t34 14q21 0 35 -14t14 -35q0 -20 -14 -34t-35 -14q-20 0 -34 14t-14 34z" />
    <glyph glyph-name="Zcaron" unicode="&#x17d;" horiz-adv-x="505" 
d="M101 61v-4h367v-57h-428l-11 59l366 581v4h-334v57h393l11 -59zM441 922l-189 -124l-189 124l23 35l166 -98l167 98z" />
    <glyph glyph-name="zcaron" unicode="&#x17e;" horiz-adv-x="434" 
d="M96 58v-4h289v-54h-340l-10 68l281 413v4h-258v54h305l15 -68zM406 752l-189 -124l-189 124l23 35l166 -98l167 98z" />
    <glyph glyph-name="longs" unicode="&#x17f;" horiz-adv-x="350" 
d="M181 634v-634h-58v632q0 62 36.5 97t107.5 35q31 0 63.5 -5.5t51.5 -16.5l-21 -52q-40 21 -103 21q-77 0 -77 -77z" />
    <glyph glyph-name="florin" unicode="&#x192;" horiz-adv-x="492" 
d="M146 -31l47 372h-98v53h105l17 142q3 30 18 67.5t53 64.5t94 27q19 0 40 -3t31 -9l-20 -53q-19 11 -61 11q-44 0 -68 -30.5t-29 -74.5l-17 -142h133v-53h-140l-47 -372q-4 -31 -19.5 -69t-52.5 -64t-93 -26q-19 0 -40 3t-31 9l20 53q19 -11 61 -11q44 0 67.5 30.5
t29.5 74.5z" />
    <glyph glyph-name="Scommaaccent" unicode="&#x218;" horiz-adv-x="522" 
d="M250 -321l-20 27q43 25 43 61q0 16 -10.5 30.5t-42.5 31.5v5q0 21 14 35t35 14q25 0 42 -19.5t17 -54.5q0 -21 -8.5 -46t-28 -48t-41.5 -36zM249 47q75 0 118 36.5t43 93.5q0 30 -14 54t-41 43.5t-99.5 53t-103.5 55.5t-47 44t-24 47t-8 54q0 38 15.5 71.5t43.5 58.5
t67 39t83 14q50 0 95 -13.5t77 -38.5l-37 -49q-59 44 -138 44q-67 0 -106 -34t-39 -89q0 -23 9.5 -45.5t35 -46t114 -64.5t119.5 -68.5t45 -58t14 -68.5q0 -29 -10 -61t-39.5 -64t-77 -48.5t-99.5 -16.5q-68 0 -122 19.5t-91 50.5l37 48q78 -61 180 -61z" />
    <glyph glyph-name="scommaaccent" unicode="&#x219;" horiz-adv-x="468" 
d="M210 -321l-20 27q43 25 43 61q0 16 -10.5 30.5t-42.5 31.5v5q0 21 14 35t35 14q25 0 42 -19.5t17 -54.5q0 -21 -8.5 -46t-28 -48t-41.5 -36zM346 141q0 29 -20 52.5t-92.5 50t-101.5 45t-46 46t-17 67.5q0 28 12 54.5t35 46.5t57 32t76 12t82.5 -14t64.5 -38l-38 -44
q-19 20 -50 31t-61 11q-59 0 -89.5 -26t-30.5 -64q0 -23 11 -40t33 -31t81.5 -36t92 -43t46 -50.5t13.5 -61.5q0 -28 -12 -55t-36 -48.5t-59.5 -34t-78.5 -12.5q-57 0 -105.5 18.5t-77.5 46.5l38 46q27 -27 65 -42t83 -15q28 0 58 9.5t48.5 33.5t18.5 53z" />
    <glyph glyph-name="uni021A" unicode="&#x21a;" horiz-adv-x="469" 
d="M212 -321l-20 27q43 25 43 61q0 16 -10.5 30.5t-42.5 31.5v5q0 21 14 35t35 14q25 0 42 -19.5t17 -54.5q0 -21 -8.5 -46t-28 -48t-41.5 -36zM205 0v645h-191v56h441v-56h-190v-645h-60z" />
    <glyph glyph-name="uni021B" unicode="&#x21b;" horiz-adv-x="375" 
d="M162 -321l-20 27q43 25 43 61q0 16 -10.5 30.5t-42.5 31.5v5q0 21 14 35t35 14q25 0 42 -19.5t17 -54.5q0 -21 -8.5 -46t-28 -48t-41.5 -36zM237 -5q-132 0 -132 140v354h-83v38l83 12l16 143h42v-143h152v-50h-152v-347q0 -48 22.5 -71t61.5 -23q54 0 85 18l17 -49
q-42 -22 -112 -22z" />
    <glyph glyph-name="uni0237" unicode="&#x237;" horiz-adv-x="244" 
d="M-4 -222l-21 51q69 21 93.5 71.5t24.5 123.5v515h58v-517q0 -194 -155 -244z" />
    <glyph glyph-name="afii57929" unicode="&#x2bc;" horiz-adv-x="217" 
d="M62 488l-17 31q30 13 48.5 33.5t18.5 43.5q0 17 -11 32.5t-47 35.5v5q0 23 15.5 38.5t38.5 15.5q19 0 35 -11.5t22.5 -31t6.5 -38.5q0 -41 -21.5 -76.5t-46.5 -53.5t-42 -24z" />
    <glyph glyph-name="circumflex" unicode="&#x2c6;" horiz-adv-x="500" 
d="M250 784l189 -124l-22 -35l-167 98l-166 -98l-23 35z" />
    <glyph glyph-name="caron" unicode="&#x2c7;" horiz-adv-x="500" 
d="M439 752l-189 -124l-189 124l23 35l166 -98l167 98z" />
    <glyph glyph-name="breve" unicode="&#x2d8;" horiz-adv-x="500" 
d="M250 645q-53 0 -94 24.5t-65 65.5l40 26q17 -30 48 -49t71 -19t71 19t48 49l40 -26q-24 -41 -65 -65.5t-94 -24.5z" />
    <glyph glyph-name="dotaccent" unicode="&#x2d9;" horiz-adv-x="500" 
d="M201 700q0 21 14 35t34 14q21 0 35 -14t14 -35q0 -20 -14 -34t-35 -14q-20 0 -34 14t-14 34z" />
    <glyph glyph-name="ring" unicode="&#x2da;" horiz-adv-x="500" 
d="M147 713q0 21 10 46t36 41.5t59 16.5q45 0 73 -26.5t28 -71.5q0 -21 -10 -46t-36 -41.5t-59 -16.5q-45 0 -73 26.5t-28 71.5zM310 715q0 28 -17 45.5t-45 17.5q-27 0 -43 -16.5t-16 -44.5t17.5 -45.5t45.5 -17.5q27 0 42.5 16.5t15.5 44.5z" />
    <glyph glyph-name="ogonek" unicode="&#x2db;" horiz-adv-x="500" 
d="M344 -218q-25 -9 -70 -9q-58 0 -88.5 30t-30.5 76q0 93 141 162l26 -31q-29 -15 -57.5 -37.5t-41 -46t-12.5 -42.5q0 -62 81 -62q5 0 19 1.5t25 6.5z" />
    <glyph glyph-name="tilde" unicode="&#x2dc;" horiz-adv-x="500" 
d="M187 734q26 0 70 -16.5t62 -16.5t34.5 7t26.5 20l24 -40q-3 -6 -16 -16t-32 -15.5t-37 -5.5q-22 0 -67 17t-66 17q-40 0 -67 -24l-23 40q1 1 5 4t9 7t15 9t24 8.5t24 4t14 0.5z" />
    <glyph glyph-name="hungarumlaut" unicode="&#x2dd;" horiz-adv-x="500" 
d="M464 743l-188 -117l-40 28l167 122zM263 743l-188 -117l-40 28l167 122z" />
    <glyph glyph-name="Delta" unicode="&#x394;" horiz-adv-x="661" 
d="M615 0h-570l-38 51l290 650h66l290 -650zM328 647l-69 -160l-130 -293l-67 -143h536l-66 143l-131 292l-69 161h-4z" />
    <glyph glyph-name="Delta" unicode="&#x2206;" horiz-adv-x="661" 
d="M615 0h-570l-38 51l290 650h66l290 -650zM328 647l-69 -160l-130 -293l-67 -143h536l-66 143l-131 292l-69 161h-4z" />
    <glyph glyph-name="Omega" unicode="&#x3a9;" horiz-adv-x="748" 
d="M244 52q-60 21 -99.5 64t-60 104t-20.5 142t22.5 147t64 110.5t99 67.5t125.5 23q69 0 126.5 -22t98.5 -65.5t63 -108t22 -146.5q0 -80 -21 -142t-61 -107t-98 -67v-4l183 8v-56h-257v70q40 10 74 32t60.5 57t41.5 85.5t15 115.5q0 72 -19 128t-53 93t-80 55t-99 18
t-97.5 -17.5t-77.5 -52.5t-51 -90.5t-18 -127.5q0 -47 10.5 -95.5t34.5 -88.5t60.5 -69.5t85.5 -42.5v-70h-258v56l184 -8v4z" />
    <glyph glyph-name="Omega" unicode="&#x2126;" horiz-adv-x="748" 
d="M244 52q-60 21 -99.5 64t-60 104t-20.5 142t22.5 147t64 110.5t99 67.5t125.5 23q69 0 126.5 -22t98.5 -65.5t63 -108t22 -146.5q0 -80 -21 -142t-61 -107t-98 -67v-4l183 8v-56h-257v70q40 10 74 32t60.5 57t41.5 85.5t15 115.5q0 72 -19 128t-53 93t-80 55t-99 18
t-97.5 -17.5t-77.5 -52.5t-51 -90.5t-18 -127.5q0 -47 10.5 -95.5t34.5 -88.5t60.5 -69.5t85.5 -42.5v-70h-258v56l184 -8v4z" />
    <glyph glyph-name="pi" unicode="&#x3c0;" horiz-adv-x="609" 
d="M148 -5l-47 28q27 39 36 75t9 113v281h-71v53h473v-53h-71v-492h-58v492h-215v-284q0 -74 -13 -125.5t-43 -87.5z" />
    <glyph glyph-name="Wgrave" unicode="&#x1e80;" horiz-adv-x="916" 
d="M240 51h4l45 176l120 474h98l123 -480l44 -170h4l44 169l124 481h60l-181 -701h-98l-124 485l-44 170h-4l-43 -171l-123 -484h-98l-181 701h61l123 -474zM532 796l-188 117l61 33l167 -122z" />
    <glyph glyph-name="wgrave" unicode="&#x1e81;" horiz-adv-x="737" 
d="M371 487h-4l-123 -487h-86l-144 539h61l81 -311l44 -175h4l36 149l85 337h89l84 -338l36 -148h4l45 175l81 311h59l-145 -539h-86zM442 626l-188 117l61 33l167 -122z" />
    <glyph glyph-name="Wacute" unicode="&#x1e82;" horiz-adv-x="916" 
d="M240 51h4l45 176l120 474h98l123 -480l44 -170h4l44 169l124 481h60l-181 -701h-98l-124 485l-44 170h-4l-43 -171l-123 -484h-98l-181 701h61l123 -474zM572 913l-188 -117l-40 28l167 122z" />
    <glyph glyph-name="wacute" unicode="&#x1e83;" horiz-adv-x="737" 
d="M371 487h-4l-123 -487h-86l-144 539h61l81 -311l44 -175h4l36 149l85 337h89l84 -338l36 -148h4l45 175l81 311h59l-145 -539h-86zM482 743l-188 -117l-40 28l167 122z" />
    <glyph glyph-name="Wdieresis" unicode="&#x1e84;" horiz-adv-x="916" 
d="M240 51h4l45 176l120 474h98l123 -480l44 -170h4l44 169l124 481h60l-181 -701h-98l-124 485l-44 170h-4l-43 -171l-123 -484h-98l-181 701h61l123 -474zM329 878q0 18 11.5 29.5t29.5 11.5q17 0 29 -11.5t12 -29.5q0 -17 -12 -29t-29 -12q-18 0 -29.5 12t-11.5 29z
M505 878q0 18 12 29.5t29 11.5q18 0 29.5 -11.5t11.5 -29.5q0 -17 -11.5 -29t-29.5 -12q-17 0 -29 12t-12 29z" />
    <glyph glyph-name="wdieresis" unicode="&#x1e85;" horiz-adv-x="737" 
d="M371 487h-4l-123 -487h-86l-144 539h61l81 -311l44 -175h4l36 149l85 337h89l84 -338l36 -148h4l45 175l81 311h59l-145 -539h-86zM239 708q0 18 11.5 29.5t29.5 11.5q17 0 29 -11.5t12 -29.5q0 -17 -12 -29t-29 -12q-18 0 -29.5 12t-11.5 29zM415 708q0 18 12 29.5
t29 11.5q18 0 29.5 -11.5t11.5 -29.5q0 -17 -11.5 -29t-29.5 -12q-17 0 -29 12t-12 29z" />
    <glyph glyph-name="Ygrave" unicode="&#x1ef2;" horiz-adv-x="518" 
d="M454 701h66l-231 -441v-260h-60v260l-231 441h70l191 -377h4zM333 796l-188 117l61 33l167 -122z" />
    <glyph glyph-name="ygrave" unicode="&#x1ef3;" horiz-adv-x="486" 
d="M23 -200l9 55q22 -8 49 -8q52 0 84 30.5t54 98.5l-193 563h62l95 -288l64 -198h4q15 61 59 198l93 288h60l-192 -580q-31 -93 -79 -130t-115 -37q-28 0 -54 8zM317 626l-188 117l61 33l167 -122z" />
    <glyph glyph-name="endash" unicode="&#x2013;" horiz-adv-x="393" 
d="M393 264h-393v56h393v-56z" />
    <glyph glyph-name="emdash" unicode="&#x2014;" horiz-adv-x="645" 
d="M645 264h-645v56h645v-56z" />
    <glyph glyph-name="quoteleft" unicode="&#x2018;" horiz-adv-x="217" 
d="M155 723l17 -31q-30 -13 -48.5 -33.5t-18.5 -43.5q0 -17 11 -32.5t47 -35.5v-5q0 -23 -15.5 -38.5t-38.5 -15.5q-19 0 -35 11.5t-22.5 31t-6.5 38.5q0 41 21.5 76.5t46.5 53.5t42 24z" />
    <glyph glyph-name="quoteright" unicode="&#x2019;" horiz-adv-x="217" 
d="M62 488l-17 31q30 13 48.5 33.5t18.5 43.5q0 17 -11 32.5t-47 35.5v5q0 23 15.5 38.5t38.5 15.5q19 0 35 -11.5t22.5 -31t6.5 -38.5q0 -41 -21.5 -76.5t-46.5 -53.5t-42 -24z" />
    <glyph glyph-name="quotesinglbase" unicode="&#x201a;" horiz-adv-x="227" 
d="M67 -130l-20 34q29 12 47.5 31.5t18.5 41.5q0 16 -9.5 32.5t-44.5 35.5v5q0 23 15.5 38.5t38.5 15.5q19 0 35 -11.5t22.5 -31t6.5 -38.5q0 -41 -21 -76t-46.5 -53t-42.5 -24z" />
    <glyph glyph-name="quotedblleft" unicode="&#x201c;" horiz-adv-x="402" 
d="M155 723l17 -31q-30 -13 -48.5 -33.5t-18.5 -43.5q0 -17 11 -32.5t47 -35.5v-5q0 -23 -15.5 -38.5t-38.5 -15.5q-19 0 -35 11.5t-22.5 31t-6.5 38.5q0 41 21.5 76.5t46.5 53.5t42 24zM340 723l17 -31q-30 -13 -48.5 -33.5t-18.5 -43.5q0 -17 11 -32.5t47 -35.5v-5
q0 -23 -15.5 -38.5t-38.5 -15.5q-19 0 -35 11.5t-22.5 31t-6.5 38.5q0 41 21.5 76.5t46.5 53.5t42 24z" />
    <glyph glyph-name="quotedblright" unicode="&#x201d;" horiz-adv-x="402" 
d="M247 488l-17 31q30 13 48.5 33.5t18.5 43.5q0 17 -11 32.5t-47 35.5v5q0 23 15.5 38.5t38.5 15.5q19 0 35 -11.5t22.5 -31t6.5 -38.5q0 -41 -21.5 -76.5t-46.5 -53.5t-42 -24zM62 488l-17 31q30 13 48.5 33.5t18.5 43.5q0 17 -11 32.5t-47 35.5v5q0 23 15.5 38.5
t38.5 15.5q19 0 35 -11.5t22.5 -31t6.5 -38.5q0 -41 -21.5 -76.5t-46.5 -53.5t-42 -24z" />
    <glyph glyph-name="quotedblbase" unicode="&#x201e;" horiz-adv-x="412" 
d="M67 -131l-17 31q30 13 48.5 33.5t18.5 43.5q0 17 -11 32.5t-47 35.5v5q0 23 15.5 38.5t38.5 15.5q19 0 35 -11.5t22.5 -31t6.5 -38.5q0 -41 -21.5 -76.5t-46.5 -53.5t-42 -24zM252 -131l-17 31q30 13 48.5 33.5t18.5 43.5q0 17 -11 32.5t-47 35.5v5q0 23 15.5 38.5
t38.5 15.5q19 0 35 -11.5t22.5 -31t6.5 -38.5q0 -41 -21.5 -76.5t-46.5 -53.5t-42 -24z" />
    <glyph glyph-name="dagger" unicode="&#x2020;" horiz-adv-x="516" 
d="M226 -120l7 604l-189 -12v73l189 -13l-12 220h73l-13 -220l191 13v-73l-190 12l10 -604h-66z" />
    <glyph glyph-name="daggerdbl" unicode="&#x2021;" horiz-adv-x="516" 
d="M233 484l-189 -12v73l189 -13l-12 220h73l-13 -220l191 13v-73l-190 12l7 -169l-6 -169l189 13v-73l-190 12l13 -219h-73l12 219l-190 -12v73l189 -13l-6 169z" />
    <glyph glyph-name="bullet" unicode="&#x2022;" horiz-adv-x="447" 
d="M91 356q0 41 21.5 73.5t51.5 46t59 13.5q55 0 94 -39t39 -94q0 -26 -13 -57t-46 -53.5t-73 -22.5q-29 0 -59.5 13.5t-52 46t-21.5 73.5z" />
    <glyph glyph-name="ellipsis" unicode="&#x2026;" horiz-adv-x="753" 
d="M50 53q0 22 15 37.5t36 15.5q22 0 37.5 -15.5t15.5 -37.5q0 -21 -15.5 -36t-37.5 -15q-21 0 -36 15t-15 36zM324 53q0 22 15 37.5t36 15.5q22 0 37.5 -15.5t15.5 -37.5q0 -21 -15.5 -36t-37.5 -15q-21 0 -36 15t-15 36zM599 53q0 22 15 37.5t36 15.5q22 0 37.5 -15.5
t15.5 -37.5q0 -21 -15.5 -36t-37.5 -15q-21 0 -36 15t-15 36z" />
    <glyph glyph-name="perthousand" unicode="&#x2030;" horiz-adv-x="1182" 
d="M197 366q44 0 66 33.5t22 107.5q0 73 -24 107.5t-68 34.5q-87 0 -87 -140q0 -73 24 -108t67 -35zM341 510q0 -94 -41 -143.5t-106 -49.5q-66 0 -105 48t-39 143q0 46 14 91t50 72t84 27q64 0 103.5 -47.5t39.5 -140.5zM200 19l473 626l-43 33l-473 -627zM764 183
q0 -94 -41 -143.5t-106 -49.5q-66 0 -105 48t-39 143q0 46 14 91t50 72t84 27q64 0 103.5 -47.5t39.5 -140.5zM620 39q44 0 66 33.5t22 107.5q0 73 -24 107.5t-68 34.5q-87 0 -87 -140q0 -73 24 -108t67 -35zM1132 183q0 -94 -41 -143.5t-106 -49.5q-66 0 -105 48t-39 143
q0 46 14 91t50 72t84 27q64 0 103.5 -47.5t39.5 -140.5zM988 39q44 0 66 33.5t22 107.5q0 73 -24 107.5t-68 34.5q-87 0 -87 -140q0 -73 24 -108t67 -35z" />
    <glyph glyph-name="guilsinglleft" unicode="&#x2039;" horiz-adv-x="280" 
d="M50 267l140 199l40 -30l-112 -169l112 -169l-40 -29z" />
    <glyph glyph-name="guilsinglright" unicode="&#x203a;" horiz-adv-x="280" 
d="M90 466l140 -199l-140 -198l-40 29l112 169l-112 169z" />
    <glyph glyph-name="fraction" unicode="&#x2044;" horiz-adv-x="176" 
d="M356 660l-498 -645l-37 27l497 647z" />
    <glyph glyph-name="uni2074" unicode="&#x2074;" horiz-adv-x="344" 
d="M216 373h-190l-11 43l186 272h66v-269h67v-46h-67v-96h-51v96zM220 644l-1 -2l-40 -70l-104 -153h141v143z" />
    <glyph glyph-name="Euro" unicode="&#x20ac;" horiz-adv-x="593" 
d="M436 439l-12 -52h-238l-1 -43l1 -45h218l-12 -51h-201q14 -98 62 -149t128 -51q36 0 67.5 8.5t62.5 32.5l34 -44q-57 -53 -174 -53q-109 0 -168.5 67t-73.5 189h-89v51h85v88h-85v52h91q18 123 83.5 190t171.5 67q33 0 68.5 -6.5t61 -19.5t37.5 -25l-37 -50
q-52 45 -136 45q-46 0 -83 -19.5t-65.5 -63.5t-40.5 -118h245z" />
    <glyph glyph-name="trademark" unicode="&#x2122;" horiz-adv-x="583" 
d="M489 664h-4l-78 -219h-39l-79 223h-4v-241h-38v274h70l71 -207l70 207h70v-274h-39v237zM5 669v32h196v-32h-78v-241h-40v241h-78z" />
    <glyph glyph-name="estimated" unicode="&#x212e;" horiz-adv-x="661" 
d="M560 136l30 -16q-35 -62 -99.5 -96t-145.5 -34q-63 0 -117 20t-92.5 57t-59 89.5t-20.5 113.5q0 60 20.5 111.5t58.5 89t91 58t115 20.5q63 0 113.5 -20t84.5 -57t51.5 -87.5t17.5 -110.5l-1 -19h-417v-186q30 -21 71.5 -33t84.5 -12q70 0 127.5 30t86.5 82zM481 290v185
q-27 17 -63 28t-76 11q-42 0 -82.5 -12t-69.5 -33v-179h291z" />
    <glyph glyph-name="partialdiff" unicode="&#x2202;" horiz-adv-x="530" 
d="M138 682v6h95q67 -40 120.5 -106.5t84.5 -148.5t31 -175q0 -121 -54 -192t-156 -71q-96 0 -147 57t-51 167q0 62 26 116t74 81t99 27q80 0 120 -31l3 2q-33 92 -93 153.5t-152 114.5zM408 252q0 53 -10 89q-20 22 -55.5 35t-78.5 13q-142 0 -142 -169q0 -81 38 -127
t105 -46q31 0 53.5 10t41 28.5t33.5 59t15 107.5z" />
    <glyph glyph-name="product" unicode="&#x220f;" horiz-adv-x="651" 
d="M145 -159l-49 28q20 29 32.5 64t12.5 130v638h379v-857h-60v804h-259v-588q0 -154 -56 -219z" />
    <glyph glyph-name="summation" unicode="&#x2211;" horiz-adv-x="515" 
d="M161 -38l-49 -76v-4l102 4h255v-54h-402l-21 51l231 384l-231 385l21 49h402v-54h-255l-102 4v-4l50 -78l182 -302z" />
    <glyph glyph-name="minus" unicode="&#x2212;" horiz-adv-x="520" 
d="M30 309v56h459v-56h-459z" />
    <glyph glyph-name="uni2215" unicode="&#x2215;" horiz-adv-x="176" 
d="M356 660l-498 -645l-37 27l497 647z" />
    <glyph glyph-name="uni2219" unicode="&#x2219;" horiz-adv-x="214" 
d="M55 355q0 22 15 37.5t36 15.5q22 0 37.5 -15.5t15.5 -37.5q0 -21 -15.5 -36t-37.5 -15q-21 0 -36 15t-15 36z" />
    <glyph glyph-name="radical" unicode="&#x221a;" horiz-adv-x="625" 
d="M307 -116h4l73 260l227 814h58l-313 -1117h-93l-205 558h-110v51h153l114 -313z" />
    <glyph glyph-name="infinity" unicode="&#x221e;" horiz-adv-x="831" 
d="M99 351q0 -50 32 -84.5t87 -34.5q35 0 76.5 25.5t87.5 89.5q-50 67 -89 91.5t-76 24.5q-55 0 -86.5 -31.5t-31.5 -80.5zM413 307q-57 -72 -106.5 -97t-93.5 -25q-78 0 -122 44.5t-44 116.5q0 71 46.5 117.5t125.5 46.5q32 0 66 -12.5t66.5 -41.5t64.5 -71q32 43 66 72.5
t68.5 41.5t64.5 12q78 0 123 -44.5t45 -114.5q0 -26 -8 -54t-27.5 -53t-53.5 -42.5t-83 -17.5q-33 0 -67 12t-65.5 39.5t-65.5 70.5zM730 348q0 47 -32.5 81t-87.5 34q-83 0 -162 -116q50 -69 88.5 -91.5t76.5 -22.5q56 0 86.5 32t30.5 83z" />
    <glyph glyph-name="integral" unicode="&#x222b;" horiz-adv-x="357" 
d="M258 763l-101 -771q-6 -48 -28 -83.5t-59.5 -58t-90.5 -22.5t-92 14l17 53q33 -13 78 -13q51 0 80.5 30t36.5 85l101 771q10 77 58 120.5t120 43.5q54 0 92 -14l-17 -53q-32 13 -78 13q-51 0 -80.5 -30t-36.5 -85z" />
    <glyph glyph-name="approxequal" unicode="&#x2248;" horiz-adv-x="520" 
d="M441 489l56 -10q-26 -110 -124 -110q-43 0 -119 30q-74 30 -105 30q-50 0 -70 -65l-56 13q13 51 47 79.5t89 28.5q35 0 105 -30t103 -30q30 0 47 14.5t27 49.5zM441 305l56 -10q-26 -110 -124 -110q-43 0 -119 30q-74 30 -105 30q-50 0 -70 -65l-56 13q13 51 47 79.5
t89 28.5q35 0 105 -30t103 -30q30 0 47 14.5t27 49.5z" />
    <glyph glyph-name="notequal" unicode="&#x2260;" horiz-adv-x="520" 
d="M30 420v56h260l47 120h55l-47 -120h144v-56h-166l-64 -166h230v-56h-252l-47 -120h-55l47 120h-152v56h174l64 166h-238z" />
    <glyph glyph-name="lessequal" unicode="&#x2264;" horiz-adv-x="520" 
d="M86 347v-4l144 -63l259 -119v-61l-459 214v63l459 214v-61l-259 -120zM489 27v56h-459v-56h459z" />
    <glyph glyph-name="greaterequal" unicode="&#x2265;" horiz-adv-x="520" 
d="M433 343v4l-144 63l-259 120v61l459 -214v-63l-459 -214v61l259 119zM30 27v56h459v-56h-459z" />
    <glyph glyph-name="lozenge" unicode="&#x25ca;" horiz-adv-x="548" 
d="M229 0l-197 350l200 351h86l197 -351l-200 -350h-86zM331 141l116 207l-126 227l-48 87l-50 -89l-123 -221l118 -213l55 -101z" />
    <glyph glyph-name="glyph228" horiz-adv-x="276" 
d="M108 0v701h60v-701h-60zM290 846h-303v46h303v-46z" />
    <glyph glyph-name="glyph231" horiz-adv-x="287" 
d="M119 0v539h58v-539h-58zM144 645q-53 0 -94 24.5t-65 65.5l40 26q17 -30 48 -49t71 -19t71 19t48 49l40 -26q-24 -41 -65 -65.5t-94 -24.5z" />
    </font>
</defs>
</svg>
