<svg xmlns="http://www.w3.org/2000/svg" width="50" height="32.875" viewBox="0 0 50 32.875">
  <metadata><?xpacket begin="﻿" id="W5M0MpCehiHzreSzNTczkc9d"?>
<x:xmpmeta xmlns:x="adobe:ns:meta/" x:xmptk="Adobe XMP Core 5.6-c142 79.160924, 2017/07/13-01:06:39        ">
   <rdf:RDF xmlns:rdf="http://www.w3.org/1999/02/22-rdf-syntax-ns#">
      <rdf:Description rdf:about=""/>
   </rdf:RDF>
</x:xmpmeta>
                                                                                                    
                                                                                                    
                                                                                                    
                                                                                                    
                                                                                                    
                                                                                                    
                                                                                                    
                                                                                                    
                                                                                                    
                                                                                                    
                                                                                                    
                                                                                                    
                                                                                                    
                                                                                                    
                                                                                                    
                                                                                                    
                                                                                                    
                                                                                                    
                                                                                                    
                                                                                                    
                           
<?xpacket end="w"?></metadata>
<defs>
    <style>
      .cls-1 {
        fill: #fff;
        fill-rule: evenodd;
      }
    </style>
  </defs>
  <path id="Path_1" data-name="Path 1" class="cls-1" d="M32.312,33a6.17,6.17,0,0,0-.908-2.246,11.276,11.276,0,0,0-3.1-2.071c-2.408-1.171-4.825-2.331-7.223-3.525a2.351,2.351,0,0,1-1.139-2.413,0.633,0.633,0,0,1,.237-0.35,10.885,10.885,0,0,0,3.988-6.117,0.835,0.835,0,0,1,.29-0.487,3.094,3.094,0,0,0,1.45-2.292,2.731,2.731,0,0,0-.758-2.84,0.714,0.714,0,0,1-.115-0.529,14.043,14.043,0,0,0-.642-6.1,4.145,4.145,0,0,0-1.69-2.1C19.529-.106,16.1-0.242,12.567.644a3.335,3.335,0,0,0-2.315,1.979,0.566,0.566,0,0,1-.319.277A2.879,2.879,0,0,0,8.066,5.019a10.626,10.626,0,0,0-.246,4.494,1.293,1.293,0,0,1-.358,1.506,0.8,0.8,0,0,0-.2.337A3.892,3.892,0,0,0,8.175,15.5a1.482,1.482,0,0,1,.431.685,10.915,10.915,0,0,0,3.921,6.158,0.724,0.724,0,0,1,.275.383,2.393,2.393,0,0,1-1.11,2.379c-1.129.6-2.271,1.185-3.427,1.739-1.619.779-3.281,1.477-4.877,2.3A6.291,6.291,0,0,0,0,33H32.312Zm-4.6-11.259a25.046,25.046,0,0,0,3.071,1c0.462,0.123.644,0.273,0.544,0.758a2.092,2.092,0,0,1-1.067,1.642c-0.806.41-1.583,0.881-2.413,1.348,0.754,0.377,1.462.71,2.15,1.077a10.384,10.384,0,0,1,2.962,2.265A6.766,6.766,0,0,1,34.547,33H50.322a5,5,0,0,0-1.742-2.7,16.217,16.217,0,0,0-2.413-1.585c-2.248-1.2-4.525-2.335-6.8-3.483a2.1,2.1,0,0,1-1.16-1.946,0.346,0.346,0,0,1,.331-0.433,24.635,24.635,0,0,0,2.452-.665,6.417,6.417,0,0,0,2.983-2.015,0.614,0.614,0,0,0,.008-0.913,4.089,4.089,0,0,1-.7-4.433A11.688,11.688,0,0,0,44,9.341,10,10,0,0,0,40.93,2.7,8.393,8.393,0,0,0,32.838.441a2.792,2.792,0,0,0-2.06,1.588,0.811,0.811,0,0,1-.437.348,6.575,6.575,0,0,0-3.433,2.846,1.814,1.814,0,0,0-.185.935c0.013,0.631.123,1.258,0.14,1.888,0.025,0.956-.14,1.94.546,2.76a0.5,0.5,0,0,1,.067.188,5.669,5.669,0,0,1-.665,4.923,1.177,1.177,0,0,0-.252.577A4.024,4.024,0,0,1,25.5,19.324a0.472,0.472,0,0,0,0,.665A5.126,5.126,0,0,0,27.709,21.741Z" transform="translate(0 -0.125)"/>
</svg>
