<svg xmlns="http://www.w3.org/2000/svg" width="305.938" height="261.938" viewBox="0 0 305.938 261.938">
  <metadata><?xpacket begin="﻿" id="W5M0MpCehiHzreSzNTczkc9d"?>
    <x:xmpmeta xmlns:x="adobe:ns:meta/" x:xmptk="Adobe XMP Core 5.6-c142 79.160924, 2017/07/13-01:06:39        ">
     <rdf:RDF xmlns:rdf="http://www.w3.org/1999/02/22-rdf-syntax-ns#">
      <rdf:Description rdf:about=""/>
    </rdf:RDF>
  </x:xmpmeta>
  
  <?xpacket end="w"?></metadata>
  <defs>
    <style>
      .cls-1 {
      fill: #fff;
      fill-rule: evenodd;
      }
    </style>
  </defs>
  <path id="Path_2" data-name="Path 2" class="cls-1" d="M106.62,232.35c-35.8,0-50.827-.231-84.9,0-6.642-.231-12.24,0-17.448,0-5.4-2.375-4.408-8.533-3.75-14.275C2.352,202.119,6.714,186.986,15.8,173.5a38.071,38.071,0,0,1,15.821-13.875c12.335-5.633,24.692-11.223,37.01-16.894,5.971-2.75,11.75-5.879,17.454-9.156,1.633-.939,1.694-1.548.5-2.958A50.849,50.849,0,0,1,76.57,111.3a12.624,12.624,0,0,0-2.631-4.864c-7.669-9.05-12.51-19.248-11.958-31.406,0.165-3.636-.3-7.748,4.433-9.406,1.06-.371.5-1.687,0.517-2.556,0.2-8.046-.187-16.1.606-24.135C69.51,18.969,83.956,3.852,103.816,1.011c10.665-1.525,21.267-1.44,31.627,1.9a41.272,41.272,0,0,1,28.782,37.656c0.345,7.519.358,15.052,0.468,22.581,0.023,1.429.063,2.487,1.784,3.108,2.277,0.821,2.506,3.125,2.823,5.2a37.252,37.252,0,0,1-5.986,26.923c-4.752,7.116-9.192,14.229-11.977,22.372a27.2,27.2,0,0,1-5.85,9.219c-1.667,1.836-1.575,2.717.654,3.994,11.7,6.712,24.009,12.156,36.323,17.59,7.154,3.158,14.421,6.1,21.19,10.05,7.614,4.441,7.523,4.464,1.541,10.572-8.56,8.742-17.027,17.573-25.562,26.34a13.56,13.56,0,0,0-2.873,4.41c-4.708,11.484-7.46,17.93-12.144,29.423-1.746,0-7.914-.135-9.646,0C138.143,232.169,118.06,232.25,106.62,232.35ZM285.585,123.663c7.169,0.344,14.06,4.454,18.021,12.721,3.9,8.141,2.827,15.977-2.384,23.346-1.408,1.989-2.312,1.958-4,.235q-13.834-14.088-27.912-27.935c-1.748-1.715-1.348-2.519.323-3.75C273.806,125.2,278.41,123.546,285.585,123.663Zm3.112,44.918q-13.865-13.647-27.516-27.51c-1.809-1.848-2.706-1.925-4.575-.042-18.784,18.938-37.511,37.936-56.623,56.54-6.944,6.76-12.338,14.06-15.752,23.227-5.1,13.673-11.034,27.035-16.892,41.2,1.04-.348,1.411-0.448,1.763-0.594q25.459-10.532,50.918-21.066a8.5,8.5,0,0,0,2.792-1.95q32.934-32.97,65.925-65.88C290.32,170.935,290.233,170.092,288.7,168.581ZM216.4,235.029q-13.881,5.679-27.709,11.492c-2.725,1.15-3.287-1.477-4.77-2.475a2.453,2.453,0,0,1-1.017-3.425q5.756-13.509,11.264-27.123c0.792-1.969,1.79-2.127,3.582-1.577,6.581,2.016,8.464,4.825,7.687,12.056,7.229-.948,10.586,1.475,12.323,8.492C218.129,233.935,217.706,234.5,216.4,235.029Z" transform="translate(0 -0.063)"/>
</svg>
